<mxfile host="Electron" modified="2024-01-17T07:47:31.470Z" agent="Mozilla/5.0 (Windows NT 10.0; Win64; x64) AppleWebKit/537.36 (KHTML, like Gecko) draw.io/22.1.15 Chrome/120.0.6099.109 Electron/28.1.0 Safari/537.36" etag="a3006UhkG1WKmjG-1IUB" version="22.1.15" type="device" pages="5">
  <diagram name="GitHubFlow" id="LhCF3r2NaWVlZ1QibF5a">
    <mxGraphModel dx="1886" dy="1970" grid="1" gridSize="10" guides="1" tooltips="1" connect="1" arrows="1" fold="1" page="1" pageScale="1" pageWidth="850" pageHeight="1100" math="0" shadow="0">
      <root>
        <mxCell id="0" />
        <mxCell id="1" parent="0" />
        <mxCell id="m3BakCkrTOuxBGxLeB8T-3" value="Branch" style="edgeStyle=orthogonalEdgeStyle;rounded=0;orthogonalLoop=1;jettySize=auto;html=1;entryX=0;entryY=0.5;entryDx=0;entryDy=0;curved=1;" parent="1" source="m3BakCkrTOuxBGxLeB8T-1" target="m3BakCkrTOuxBGxLeB8T-14" edge="1">
          <mxGeometry x="0.1333" relative="1" as="geometry">
            <mxPoint x="290" y="-800" as="targetPoint" />
            <mxPoint as="offset" />
          </mxGeometry>
        </mxCell>
        <mxCell id="m3BakCkrTOuxBGxLeB8T-24" style="edgeStyle=orthogonalEdgeStyle;rounded=0;orthogonalLoop=1;jettySize=auto;html=1;entryX=0;entryY=0.5;entryDx=0;entryDy=0;fillColor=#dae8fc;strokeColor=#6c8ebf;" parent="1" source="m3BakCkrTOuxBGxLeB8T-1" target="m3BakCkrTOuxBGxLeB8T-37" edge="1">
          <mxGeometry relative="1" as="geometry" />
        </mxCell>
        <mxCell id="m3BakCkrTOuxBGxLeB8T-1" value="" style="ellipse;whiteSpace=wrap;html=1;aspect=fixed;fillColor=#dae8fc;strokeColor=#6c8ebf;" parent="1" vertex="1">
          <mxGeometry x="130" y="-840" width="80" height="80" as="geometry" />
        </mxCell>
        <mxCell id="m3BakCkrTOuxBGxLeB8T-8" value="Main" style="swimlane;horizontal=0;whiteSpace=wrap;html=1;fillColor=#dae8fc;strokeColor=#6c8ebf;" parent="1" vertex="1">
          <mxGeometry x="60" y="-900" width="2210" height="200" as="geometry" />
        </mxCell>
        <mxCell id="m3BakCkrTOuxBGxLeB8T-47" value="" style="edgeStyle=orthogonalEdgeStyle;rounded=0;orthogonalLoop=1;jettySize=auto;html=1;fillColor=#dae8fc;strokeColor=#6c8ebf;" parent="m3BakCkrTOuxBGxLeB8T-8" source="m3BakCkrTOuxBGxLeB8T-19" target="m3BakCkrTOuxBGxLeB8T-46" edge="1">
          <mxGeometry relative="1" as="geometry" />
        </mxCell>
        <mxCell id="m3BakCkrTOuxBGxLeB8T-19" value="v1.1" style="ellipse;whiteSpace=wrap;html=1;aspect=fixed;fillColor=#dae8fc;strokeColor=#6c8ebf;" parent="m3BakCkrTOuxBGxLeB8T-8" vertex="1">
          <mxGeometry x="760" y="60" width="80" height="80" as="geometry" />
        </mxCell>
        <mxCell id="m3BakCkrTOuxBGxLeB8T-25" style="edgeStyle=orthogonalEdgeStyle;rounded=0;orthogonalLoop=1;jettySize=auto;html=1;entryX=0;entryY=0.5;entryDx=0;entryDy=0;fillColor=#dae8fc;strokeColor=#6c8ebf;" parent="m3BakCkrTOuxBGxLeB8T-8" source="m3BakCkrTOuxBGxLeB8T-22" target="m3BakCkrTOuxBGxLeB8T-19" edge="1">
          <mxGeometry relative="1" as="geometry" />
        </mxCell>
        <mxCell id="m3BakCkrTOuxBGxLeB8T-22" value="" style="ellipse;whiteSpace=wrap;html=1;aspect=fixed;fillColor=#dae8fc;strokeColor=#6c8ebf;" parent="m3BakCkrTOuxBGxLeB8T-8" vertex="1">
          <mxGeometry x="410" y="60" width="80" height="80" as="geometry" />
        </mxCell>
        <mxCell id="m3BakCkrTOuxBGxLeB8T-38" style="edgeStyle=orthogonalEdgeStyle;rounded=0;orthogonalLoop=1;jettySize=auto;html=1;fillColor=#dae8fc;strokeColor=#6c8ebf;" parent="m3BakCkrTOuxBGxLeB8T-8" source="m3BakCkrTOuxBGxLeB8T-37" target="m3BakCkrTOuxBGxLeB8T-22" edge="1">
          <mxGeometry relative="1" as="geometry" />
        </mxCell>
        <mxCell id="m3BakCkrTOuxBGxLeB8T-37" value="" style="ellipse;whiteSpace=wrap;html=1;aspect=fixed;fillColor=#dae8fc;strokeColor=#6c8ebf;" parent="m3BakCkrTOuxBGxLeB8T-8" vertex="1">
          <mxGeometry x="250" y="60" width="80" height="80" as="geometry" />
        </mxCell>
        <mxCell id="m3BakCkrTOuxBGxLeB8T-53" value="" style="edgeStyle=orthogonalEdgeStyle;rounded=0;orthogonalLoop=1;jettySize=auto;html=1;fillColor=#dae8fc;strokeColor=#6c8ebf;" parent="m3BakCkrTOuxBGxLeB8T-8" source="m3BakCkrTOuxBGxLeB8T-46" target="m3BakCkrTOuxBGxLeB8T-52" edge="1">
          <mxGeometry relative="1" as="geometry" />
        </mxCell>
        <mxCell id="m3BakCkrTOuxBGxLeB8T-46" value="" style="ellipse;whiteSpace=wrap;html=1;aspect=fixed;fillColor=#dae8fc;strokeColor=#6c8ebf;" parent="m3BakCkrTOuxBGxLeB8T-8" vertex="1">
          <mxGeometry x="920" y="60" width="80" height="80" as="geometry" />
        </mxCell>
        <mxCell id="m3BakCkrTOuxBGxLeB8T-52" value="" style="ellipse;whiteSpace=wrap;html=1;aspect=fixed;fillColor=#dae8fc;strokeColor=#6c8ebf;" parent="m3BakCkrTOuxBGxLeB8T-8" vertex="1">
          <mxGeometry x="1080" y="60" width="80" height="80" as="geometry" />
        </mxCell>
        <mxCell id="m3BakCkrTOuxBGxLeB8T-77" value="Tag, Build &amp;amp; DEV release" style="shape=callout;whiteSpace=wrap;html=1;perimeter=calloutPerimeter;" parent="m3BakCkrTOuxBGxLeB8T-8" vertex="1">
          <mxGeometry x="1440" y="-30" width="120" height="80" as="geometry" />
        </mxCell>
        <mxCell id="m3BakCkrTOuxBGxLeB8T-9" value="Feature 1" style="swimlane;horizontal=0;whiteSpace=wrap;html=1;" parent="1" vertex="1">
          <mxGeometry x="60" y="-700" width="2210" height="200" as="geometry" />
        </mxCell>
        <mxCell id="m3BakCkrTOuxBGxLeB8T-16" value="" style="edgeStyle=orthogonalEdgeStyle;rounded=0;orthogonalLoop=1;jettySize=auto;html=1;fillColor=#ffe6cc;strokeColor=#d79b00;" parent="m3BakCkrTOuxBGxLeB8T-9" source="m3BakCkrTOuxBGxLeB8T-14" target="m3BakCkrTOuxBGxLeB8T-15" edge="1">
          <mxGeometry relative="1" as="geometry" />
        </mxCell>
        <mxCell id="m3BakCkrTOuxBGxLeB8T-14" value="" style="ellipse;whiteSpace=wrap;html=1;aspect=fixed;fillColor=#ffe6cc;strokeColor=#d79b00;" parent="m3BakCkrTOuxBGxLeB8T-9" vertex="1">
          <mxGeometry x="250" y="60" width="80" height="80" as="geometry" />
        </mxCell>
        <mxCell id="m3BakCkrTOuxBGxLeB8T-18" value="" style="edgeStyle=orthogonalEdgeStyle;rounded=0;orthogonalLoop=1;jettySize=auto;html=1;fillColor=#ffe6cc;strokeColor=#d79b00;" parent="m3BakCkrTOuxBGxLeB8T-9" source="m3BakCkrTOuxBGxLeB8T-15" target="m3BakCkrTOuxBGxLeB8T-17" edge="1">
          <mxGeometry relative="1" as="geometry" />
        </mxCell>
        <mxCell id="m3BakCkrTOuxBGxLeB8T-15" value="" style="ellipse;whiteSpace=wrap;html=1;aspect=fixed;fillColor=#ffe6cc;strokeColor=#d79b00;" parent="m3BakCkrTOuxBGxLeB8T-9" vertex="1">
          <mxGeometry x="410" y="60" width="80" height="80" as="geometry" />
        </mxCell>
        <mxCell id="m3BakCkrTOuxBGxLeB8T-17" value="" style="ellipse;whiteSpace=wrap;html=1;aspect=fixed;fillColor=#ffe6cc;strokeColor=#d79b00;" parent="m3BakCkrTOuxBGxLeB8T-9" vertex="1">
          <mxGeometry x="570" y="60" width="80" height="80" as="geometry" />
        </mxCell>
        <mxCell id="0xpaCjyFKsnf6U_uG5Tg-1" value="Dev" style="shape=umlActor;verticalLabelPosition=bottom;verticalAlign=top;html=1;outlineConnect=0;" parent="m3BakCkrTOuxBGxLeB8T-9" vertex="1">
          <mxGeometry x="40" y="60" width="30" height="60" as="geometry" />
        </mxCell>
        <mxCell id="m3BakCkrTOuxBGxLeB8T-10" value="Feature 2" style="swimlane;horizontal=0;whiteSpace=wrap;html=1;" parent="1" vertex="1">
          <mxGeometry x="60" y="-500" width="2210" height="200" as="geometry" />
        </mxCell>
        <mxCell id="m3BakCkrTOuxBGxLeB8T-29" value="" style="ellipse;whiteSpace=wrap;html=1;aspect=fixed;" parent="m3BakCkrTOuxBGxLeB8T-10" vertex="1">
          <mxGeometry x="410" y="60" width="80" height="80" as="geometry" />
        </mxCell>
        <mxCell id="m3BakCkrTOuxBGxLeB8T-31" value="" style="ellipse;whiteSpace=wrap;html=1;aspect=fixed;fillColor=#d5e8d4;strokeColor=#82b366;" parent="m3BakCkrTOuxBGxLeB8T-10" vertex="1">
          <mxGeometry x="570" y="60" width="80" height="80" as="geometry" />
        </mxCell>
        <mxCell id="m3BakCkrTOuxBGxLeB8T-28" value="" style="edgeStyle=orthogonalEdgeStyle;rounded=0;orthogonalLoop=1;jettySize=auto;html=1;" parent="m3BakCkrTOuxBGxLeB8T-10" source="m3BakCkrTOuxBGxLeB8T-29" target="m3BakCkrTOuxBGxLeB8T-31" edge="1">
          <mxGeometry relative="1" as="geometry" />
        </mxCell>
        <mxCell id="m3BakCkrTOuxBGxLeB8T-61" value="Branch" style="edgeStyle=orthogonalEdgeStyle;rounded=0;orthogonalLoop=1;jettySize=auto;html=1;curved=1;entryX=0;entryY=0.5;entryDx=0;entryDy=0;fillColor=#d5e8d4;strokeColor=#82b366;" parent="m3BakCkrTOuxBGxLeB8T-10" target="m3BakCkrTOuxBGxLeB8T-62" edge="1">
          <mxGeometry x="0.5417" y="10" relative="1" as="geometry">
            <mxPoint x="330" y="-300" as="sourcePoint" />
            <mxPoint as="offset" />
          </mxGeometry>
        </mxCell>
        <mxCell id="m3BakCkrTOuxBGxLeB8T-62" value="" style="ellipse;whiteSpace=wrap;html=1;aspect=fixed;fillColor=#d5e8d4;strokeColor=#82b366;" parent="m3BakCkrTOuxBGxLeB8T-10" vertex="1">
          <mxGeometry x="410" y="60" width="80" height="80" as="geometry" />
        </mxCell>
        <mxCell id="m3BakCkrTOuxBGxLeB8T-63" value="" style="edgeStyle=orthogonalEdgeStyle;rounded=0;orthogonalLoop=1;jettySize=auto;html=1;fillColor=#d5e8d4;strokeColor=#82b366;" parent="m3BakCkrTOuxBGxLeB8T-10" source="m3BakCkrTOuxBGxLeB8T-62" edge="1">
          <mxGeometry relative="1" as="geometry">
            <mxPoint x="570" y="100" as="targetPoint" />
          </mxGeometry>
        </mxCell>
        <mxCell id="0xpaCjyFKsnf6U_uG5Tg-2" value="Dev" style="shape=umlActor;verticalLabelPosition=bottom;verticalAlign=top;html=1;outlineConnect=0;" parent="m3BakCkrTOuxBGxLeB8T-10" vertex="1">
          <mxGeometry x="40" y="70" width="30" height="60" as="geometry" />
        </mxCell>
        <mxCell id="m3BakCkrTOuxBGxLeB8T-11" value="HotFix 1" style="swimlane;horizontal=0;whiteSpace=wrap;html=1;" parent="1" vertex="1">
          <mxGeometry x="60" y="-300" width="2210" height="200" as="geometry" />
        </mxCell>
        <mxCell id="m3BakCkrTOuxBGxLeB8T-42" value="" style="ellipse;whiteSpace=wrap;html=1;aspect=fixed;fillColor=#f8cecc;strokeColor=#b85450;" parent="m3BakCkrTOuxBGxLeB8T-11" vertex="1">
          <mxGeometry x="1080" y="60" width="80" height="80" as="geometry" />
        </mxCell>
        <mxCell id="m3BakCkrTOuxBGxLeB8T-44" value="" style="ellipse;whiteSpace=wrap;html=1;aspect=fixed;fillColor=#f8cecc;strokeColor=#b85450;" parent="m3BakCkrTOuxBGxLeB8T-11" vertex="1">
          <mxGeometry x="1240" y="60" width="80" height="80" as="geometry" />
        </mxCell>
        <mxCell id="m3BakCkrTOuxBGxLeB8T-45" value="" style="edgeStyle=orthogonalEdgeStyle;rounded=0;orthogonalLoop=1;jettySize=auto;html=1;fillColor=#f8cecc;strokeColor=#b85450;" parent="m3BakCkrTOuxBGxLeB8T-11" source="m3BakCkrTOuxBGxLeB8T-42" target="m3BakCkrTOuxBGxLeB8T-44" edge="1">
          <mxGeometry relative="1" as="geometry" />
        </mxCell>
        <mxCell id="GeiCi57s9cvkosPEUwTB-1" value="Dev" style="shape=umlActor;verticalLabelPosition=bottom;verticalAlign=top;html=1;outlineConnect=0;" parent="m3BakCkrTOuxBGxLeB8T-11" vertex="1">
          <mxGeometry x="40" y="70" width="30" height="60" as="geometry" />
        </mxCell>
        <mxCell id="m3BakCkrTOuxBGxLeB8T-20" value="PR&lt;br&gt;Push" style="edgeStyle=orthogonalEdgeStyle;rounded=0;orthogonalLoop=1;jettySize=auto;html=1;entryX=0;entryY=0.5;entryDx=0;entryDy=0;curved=1;fillColor=#ffe6cc;strokeColor=#d79b00;" parent="1" source="m3BakCkrTOuxBGxLeB8T-17" target="m3BakCkrTOuxBGxLeB8T-19" edge="1">
          <mxGeometry x="-0.129" relative="1" as="geometry">
            <mxPoint as="offset" />
          </mxGeometry>
        </mxCell>
        <mxCell id="m3BakCkrTOuxBGxLeB8T-39" value="Branch" style="edgeStyle=orthogonalEdgeStyle;rounded=0;orthogonalLoop=1;jettySize=auto;html=1;curved=1;entryX=0;entryY=0.5;entryDx=0;entryDy=0;fillColor=#d5e8d4;strokeColor=#82b366;" parent="1" source="m3BakCkrTOuxBGxLeB8T-37" target="m3BakCkrTOuxBGxLeB8T-29" edge="1">
          <mxGeometry x="0.5417" y="10" relative="1" as="geometry">
            <mxPoint as="offset" />
          </mxGeometry>
        </mxCell>
        <mxCell id="m3BakCkrTOuxBGxLeB8T-26" value="" style="ellipse;whiteSpace=wrap;html=1;aspect=fixed;fillColor=#dae8fc;strokeColor=#6c8ebf;" parent="1" vertex="1">
          <mxGeometry x="1680" y="-840" width="80" height="80" as="geometry" />
        </mxCell>
        <mxCell id="m3BakCkrTOuxBGxLeB8T-32" value="" style="ellipse;whiteSpace=wrap;html=1;aspect=fixed;fillColor=#d5e8d4;strokeColor=#82b366;" parent="1" vertex="1">
          <mxGeometry x="1870" y="-440" width="80" height="80" as="geometry" />
        </mxCell>
        <mxCell id="m3BakCkrTOuxBGxLeB8T-57" style="edgeStyle=orthogonalEdgeStyle;rounded=0;orthogonalLoop=1;jettySize=auto;html=1;fillColor=#dae8fc;strokeColor=#6c8ebf;" parent="1" source="m3BakCkrTOuxBGxLeB8T-34" edge="1">
          <mxGeometry relative="1" as="geometry">
            <mxPoint x="2200" y="-800" as="targetPoint" />
          </mxGeometry>
        </mxCell>
        <mxCell id="m3BakCkrTOuxBGxLeB8T-34" value="v1.2" style="ellipse;whiteSpace=wrap;html=1;aspect=fixed;fillColor=#dae8fc;strokeColor=#6c8ebf;" parent="1" vertex="1">
          <mxGeometry x="2020" y="-840" width="80" height="80" as="geometry" />
        </mxCell>
        <mxCell id="m3BakCkrTOuxBGxLeB8T-30" value="" style="edgeStyle=orthogonalEdgeStyle;rounded=0;orthogonalLoop=1;jettySize=auto;html=1;fillColor=#d5e8d4;strokeColor=#82b366;" parent="1" source="m3BakCkrTOuxBGxLeB8T-31" target="m3BakCkrTOuxBGxLeB8T-32" edge="1">
          <mxGeometry relative="1" as="geometry" />
        </mxCell>
        <mxCell id="m3BakCkrTOuxBGxLeB8T-35" value="" style="edgeStyle=orthogonalEdgeStyle;rounded=0;orthogonalLoop=1;jettySize=auto;html=1;fillColor=#dae8fc;strokeColor=#6c8ebf;" parent="1" source="m3BakCkrTOuxBGxLeB8T-26" target="m3BakCkrTOuxBGxLeB8T-34" edge="1">
          <mxGeometry relative="1" as="geometry" />
        </mxCell>
        <mxCell id="m3BakCkrTOuxBGxLeB8T-40" value="Merge" style="edgeStyle=orthogonalEdgeStyle;rounded=0;orthogonalLoop=1;jettySize=auto;html=1;entryX=0;entryY=0.5;entryDx=0;entryDy=0;curved=1;fillColor=#d5e8d4;strokeColor=#82b366;" parent="1" source="m3BakCkrTOuxBGxLeB8T-26" target="m3BakCkrTOuxBGxLeB8T-32" edge="1">
          <mxGeometry x="0.5098" y="5" relative="1" as="geometry">
            <mxPoint as="offset" />
          </mxGeometry>
        </mxCell>
        <mxCell id="m3BakCkrTOuxBGxLeB8T-41" value="PR&lt;br style=&quot;border-color: var(--border-color);&quot;&gt;Push" style="edgeStyle=orthogonalEdgeStyle;rounded=0;orthogonalLoop=1;jettySize=auto;html=1;entryX=0;entryY=0.5;entryDx=0;entryDy=0;curved=1;fillColor=#d5e8d4;strokeColor=#82b366;" parent="1" source="m3BakCkrTOuxBGxLeB8T-32" target="m3BakCkrTOuxBGxLeB8T-34" edge="1">
          <mxGeometry x="-0.5106" y="5" relative="1" as="geometry">
            <mxPoint as="offset" />
          </mxGeometry>
        </mxCell>
        <mxCell id="m3BakCkrTOuxBGxLeB8T-48" value="Branch" style="edgeStyle=orthogonalEdgeStyle;rounded=0;orthogonalLoop=1;jettySize=auto;html=1;entryX=0;entryY=0.5;entryDx=0;entryDy=0;curved=1;exitX=1;exitY=0.5;exitDx=0;exitDy=0;fillColor=#f8cecc;strokeColor=#b85450;" parent="1" source="m3BakCkrTOuxBGxLeB8T-46" target="m3BakCkrTOuxBGxLeB8T-42" edge="1">
          <mxGeometry x="0.6471" y="10" relative="1" as="geometry">
            <mxPoint as="offset" />
          </mxGeometry>
        </mxCell>
        <mxCell id="m3BakCkrTOuxBGxLeB8T-56" style="edgeStyle=orthogonalEdgeStyle;rounded=0;orthogonalLoop=1;jettySize=auto;html=1;entryX=0;entryY=0.5;entryDx=0;entryDy=0;fillColor=#dae8fc;strokeColor=#6c8ebf;" parent="1" source="m3BakCkrTOuxBGxLeB8T-49" target="m3BakCkrTOuxBGxLeB8T-26" edge="1">
          <mxGeometry relative="1" as="geometry" />
        </mxCell>
        <mxCell id="m3BakCkrTOuxBGxLeB8T-49" value="v1.1.1" style="ellipse;whiteSpace=wrap;html=1;aspect=fixed;fillColor=#dae8fc;strokeColor=#6c8ebf;" parent="1" vertex="1">
          <mxGeometry x="1490" y="-840" width="80" height="80" as="geometry" />
        </mxCell>
        <mxCell id="m3BakCkrTOuxBGxLeB8T-50" value="PR&lt;br&gt;Push" style="edgeStyle=orthogonalEdgeStyle;rounded=0;orthogonalLoop=1;jettySize=auto;html=1;entryX=0;entryY=0.5;entryDx=0;entryDy=0;curved=1;fillColor=#f8cecc;strokeColor=#b85450;" parent="1" source="m3BakCkrTOuxBGxLeB8T-44" target="m3BakCkrTOuxBGxLeB8T-49" edge="1">
          <mxGeometry x="-0.6197" y="15" relative="1" as="geometry">
            <mxPoint as="offset" />
          </mxGeometry>
        </mxCell>
        <mxCell id="m3BakCkrTOuxBGxLeB8T-54" value="Merge" style="edgeStyle=orthogonalEdgeStyle;rounded=0;orthogonalLoop=1;jettySize=auto;html=1;entryX=0;entryY=0.5;entryDx=0;entryDy=0;curved=1;fillColor=#f8cecc;strokeColor=#b85450;" parent="1" source="m3BakCkrTOuxBGxLeB8T-52" target="m3BakCkrTOuxBGxLeB8T-44" edge="1">
          <mxGeometry x="0.6471" y="10" relative="1" as="geometry">
            <mxPoint as="offset" />
          </mxGeometry>
        </mxCell>
        <mxCell id="m3BakCkrTOuxBGxLeB8T-55" style="edgeStyle=orthogonalEdgeStyle;rounded=0;orthogonalLoop=1;jettySize=auto;html=1;entryX=0;entryY=0.5;entryDx=0;entryDy=0;fillColor=#dae8fc;strokeColor=#6c8ebf;" parent="1" source="m3BakCkrTOuxBGxLeB8T-52" target="m3BakCkrTOuxBGxLeB8T-49" edge="1">
          <mxGeometry relative="1" as="geometry" />
        </mxCell>
        <mxCell id="m3BakCkrTOuxBGxLeB8T-64" value="Branch" style="edgeStyle=orthogonalEdgeStyle;rounded=0;orthogonalLoop=1;jettySize=auto;html=1;entryX=0;entryY=0.5;entryDx=0;entryDy=0;curved=1;fillColor=#ffe6cc;strokeColor=#d79b00;" parent="1" target="m3BakCkrTOuxBGxLeB8T-65" edge="1">
          <mxGeometry x="0.1333" relative="1" as="geometry">
            <mxPoint x="210" y="-800" as="sourcePoint" />
            <mxPoint x="290" y="-800" as="targetPoint" />
            <mxPoint as="offset" />
          </mxGeometry>
        </mxCell>
        <mxCell id="m3BakCkrTOuxBGxLeB8T-65" value="" style="ellipse;whiteSpace=wrap;html=1;aspect=fixed;fillColor=#ffe6cc;strokeColor=#d79b00;" parent="1" vertex="1">
          <mxGeometry x="310" y="-640" width="80" height="80" as="geometry" />
        </mxCell>
        <mxCell id="m3BakCkrTOuxBGxLeB8T-66" value="" style="ellipse;whiteSpace=wrap;html=1;aspect=fixed;fillColor=#ffe6cc;strokeColor=#d79b00;" parent="1" vertex="1">
          <mxGeometry x="630" y="-640" width="80" height="80" as="geometry" />
        </mxCell>
        <mxCell id="m3BakCkrTOuxBGxLeB8T-67" value="" style="ellipse;whiteSpace=wrap;html=1;aspect=fixed;fillColor=#ffe6cc;strokeColor=#d79b00;" parent="1" vertex="1">
          <mxGeometry x="470" y="-640" width="80" height="80" as="geometry" />
        </mxCell>
        <mxCell id="m3BakCkrTOuxBGxLeB8T-68" value="" style="edgeStyle=orthogonalEdgeStyle;rounded=0;orthogonalLoop=1;jettySize=auto;html=1;fillColor=#ffe6cc;strokeColor=#d79b00;" parent="1" source="m3BakCkrTOuxBGxLeB8T-65" target="m3BakCkrTOuxBGxLeB8T-67" edge="1">
          <mxGeometry relative="1" as="geometry" />
        </mxCell>
        <mxCell id="m3BakCkrTOuxBGxLeB8T-69" value="Merge" style="edgeStyle=orthogonalEdgeStyle;rounded=0;orthogonalLoop=1;jettySize=auto;html=1;entryX=0;entryY=0.5;entryDx=0;entryDy=0;curved=1;fillColor=#ffe6cc;strokeColor=#d79b00;" parent="1" target="m3BakCkrTOuxBGxLeB8T-66" edge="1">
          <mxGeometry x="0.1429" relative="1" as="geometry">
            <mxPoint x="550" y="-800" as="sourcePoint" />
            <mxPoint as="offset" />
          </mxGeometry>
        </mxCell>
        <mxCell id="m3BakCkrTOuxBGxLeB8T-70" value="" style="edgeStyle=orthogonalEdgeStyle;rounded=0;orthogonalLoop=1;jettySize=auto;html=1;fillColor=#ffe6cc;strokeColor=#d79b00;" parent="1" source="m3BakCkrTOuxBGxLeB8T-67" target="m3BakCkrTOuxBGxLeB8T-66" edge="1">
          <mxGeometry relative="1" as="geometry" />
        </mxCell>
        <mxCell id="m3BakCkrTOuxBGxLeB8T-71" value="v1" style="ellipse;whiteSpace=wrap;html=1;aspect=fixed;fillColor=#dae8fc;strokeColor=#6c8ebf;" parent="1" vertex="1">
          <mxGeometry x="130" y="-840" width="80" height="80" as="geometry" />
        </mxCell>
        <mxCell id="m3BakCkrTOuxBGxLeB8T-73" value="Tag, Build &amp;amp; DEV release" style="shape=callout;whiteSpace=wrap;html=1;perimeter=calloutPerimeter;" parent="1" vertex="1">
          <mxGeometry x="820" y="-930" width="120" height="80" as="geometry" />
        </mxCell>
        <mxCell id="m3BakCkrTOuxBGxLeB8T-78" value="Tag, Build &amp;amp; DEV release" style="shape=callout;whiteSpace=wrap;html=1;perimeter=calloutPerimeter;" parent="1" vertex="1">
          <mxGeometry x="2030" y="-930" width="120" height="80" as="geometry" />
        </mxCell>
        <mxCell id="WhpGDYoasqL0wvgJwYPR-1" value="" style="shape=flexArrow;endArrow=classic;html=1;rounded=0;fillColor=#dae8fc;strokeColor=#6c8ebf;" parent="1" edge="1">
          <mxGeometry width="50" height="50" relative="1" as="geometry">
            <mxPoint x="900" y="-830" as="sourcePoint" />
            <mxPoint x="1040" y="-980" as="targetPoint" />
          </mxGeometry>
        </mxCell>
        <mxCell id="WhpGDYoasqL0wvgJwYPR-2" value="Artefact v1" style="ellipse;shape=cloud;whiteSpace=wrap;html=1;" parent="1" vertex="1">
          <mxGeometry x="1010" y="-1050" width="120" height="80" as="geometry" />
        </mxCell>
        <mxCell id="WhpGDYoasqL0wvgJwYPR-3" value="" style="shape=flexArrow;endArrow=classic;html=1;rounded=0;fillColor=#dae8fc;strokeColor=#6c8ebf;" parent="1" edge="1">
          <mxGeometry width="50" height="50" relative="1" as="geometry">
            <mxPoint x="1570" y="-830" as="sourcePoint" />
            <mxPoint x="1710" y="-980" as="targetPoint" />
          </mxGeometry>
        </mxCell>
        <mxCell id="WhpGDYoasqL0wvgJwYPR-4" value="Artefact v1.1" style="ellipse;shape=cloud;whiteSpace=wrap;html=1;" parent="1" vertex="1">
          <mxGeometry x="1680" y="-1050" width="120" height="80" as="geometry" />
        </mxCell>
        <mxCell id="WhpGDYoasqL0wvgJwYPR-5" value="" style="shape=flexArrow;endArrow=classic;html=1;rounded=0;fillColor=#dae8fc;strokeColor=#6c8ebf;" parent="1" edge="1">
          <mxGeometry width="50" height="50" relative="1" as="geometry">
            <mxPoint x="2100" y="-830" as="sourcePoint" />
            <mxPoint x="2240" y="-980" as="targetPoint" />
          </mxGeometry>
        </mxCell>
        <mxCell id="WhpGDYoasqL0wvgJwYPR-6" value="Artefact v2" style="ellipse;shape=cloud;whiteSpace=wrap;html=1;" parent="1" vertex="1">
          <mxGeometry x="2210" y="-1050" width="120" height="80" as="geometry" />
        </mxCell>
      </root>
    </mxGraphModel>
  </diagram>
  <diagram name="GitLabFlow" id="EujLK__r8YuEPD91L4iT">
    <mxGraphModel dx="1886" dy="1970" grid="1" gridSize="10" guides="1" tooltips="1" connect="1" arrows="1" fold="1" page="1" pageScale="1" pageWidth="850" pageHeight="1100" math="0" shadow="0">
      <root>
        <mxCell id="auzZe-Kqoyak0Po6J_6k-0" />
        <mxCell id="auzZe-Kqoyak0Po6J_6k-1" parent="auzZe-Kqoyak0Po6J_6k-0" />
        <mxCell id="auzZe-Kqoyak0Po6J_6k-4" value="" style="ellipse;whiteSpace=wrap;html=1;aspect=fixed;fillColor=#dae8fc;strokeColor=#6c8ebf;" parent="auzZe-Kqoyak0Po6J_6k-1" vertex="1">
          <mxGeometry x="110" y="100" width="80" height="80" as="geometry" />
        </mxCell>
        <mxCell id="auzZe-Kqoyak0Po6J_6k-5" value="DEV" style="swimlane;horizontal=0;whiteSpace=wrap;html=1;fillColor=#dae8fc;strokeColor=#6c8ebf;" parent="auzZe-Kqoyak0Po6J_6k-1" vertex="1">
          <mxGeometry x="40" y="40" width="1880" height="200" as="geometry" />
        </mxCell>
        <mxCell id="tnWxyNLt2FiHgPI377oE-0" value="Dev" style="shape=umlActor;verticalLabelPosition=bottom;verticalAlign=top;html=1;outlineConnect=0;" parent="auzZe-Kqoyak0Po6J_6k-5" vertex="1">
          <mxGeometry x="30" y="70" width="30" height="60" as="geometry" />
        </mxCell>
        <mxCell id="Zw-6NtkazHFqrKBdDkFL-11" value="" style="edgeStyle=orthogonalEdgeStyle;rounded=0;orthogonalLoop=1;jettySize=auto;html=1;fillColor=#dae8fc;strokeColor=#6c8ebf;" parent="auzZe-Kqoyak0Po6J_6k-5" source="Zw-6NtkazHFqrKBdDkFL-2" target="Zw-6NtkazHFqrKBdDkFL-10" edge="1">
          <mxGeometry relative="1" as="geometry" />
        </mxCell>
        <mxCell id="Zw-6NtkazHFqrKBdDkFL-2" value="IR - bar1.1" style="ellipse;whiteSpace=wrap;html=1;aspect=fixed;fillColor=#dae8fc;strokeColor=#6c8ebf;" parent="auzZe-Kqoyak0Po6J_6k-5" vertex="1">
          <mxGeometry x="400" y="60" width="80" height="80" as="geometry" />
        </mxCell>
        <mxCell id="djqAnQ4RIdwEAbquAlJI-8" value="" style="edgeStyle=orthogonalEdgeStyle;rounded=0;orthogonalLoop=1;jettySize=auto;html=1;" parent="auzZe-Kqoyak0Po6J_6k-5" source="Zw-6NtkazHFqrKBdDkFL-10" target="djqAnQ4RIdwEAbquAlJI-7" edge="1">
          <mxGeometry relative="1" as="geometry" />
        </mxCell>
        <mxCell id="Zw-6NtkazHFqrKBdDkFL-10" value="IR - bar1.2" style="ellipse;whiteSpace=wrap;html=1;aspect=fixed;fillColor=#dae8fc;strokeColor=#6c8ebf;" parent="auzZe-Kqoyak0Po6J_6k-5" vertex="1">
          <mxGeometry x="560" y="60" width="80" height="80" as="geometry" />
        </mxCell>
        <mxCell id="Z3MneDuqIt_lZGY9wJsY-9" value="" style="ellipse;whiteSpace=wrap;html=1;aspect=fixed;fillColor=#dae8fc;strokeColor=#6c8ebf;" parent="auzZe-Kqoyak0Po6J_6k-5" vertex="1">
          <mxGeometry x="240" y="60" width="80" height="80" as="geometry" />
        </mxCell>
        <mxCell id="Z3MneDuqIt_lZGY9wJsY-0" style="edgeStyle=orthogonalEdgeStyle;rounded=0;orthogonalLoop=1;jettySize=auto;html=1;fillColor=#dae8fc;strokeColor=#6c8ebf;exitX=1;exitY=0.5;exitDx=0;exitDy=0;entryX=0;entryY=0.5;entryDx=0;entryDy=0;" parent="auzZe-Kqoyak0Po6J_6k-5" source="Z3MneDuqIt_lZGY9wJsY-9" target="Zw-6NtkazHFqrKBdDkFL-2" edge="1">
          <mxGeometry relative="1" as="geometry">
            <mxPoint x="149.5" y="90" as="sourcePoint" />
            <mxPoint x="550" y="110" as="targetPoint" />
          </mxGeometry>
        </mxCell>
        <mxCell id="djqAnQ4RIdwEAbquAlJI-10" value="" style="edgeStyle=orthogonalEdgeStyle;rounded=0;orthogonalLoop=1;jettySize=auto;html=1;" parent="auzZe-Kqoyak0Po6J_6k-5" source="djqAnQ4RIdwEAbquAlJI-7" target="djqAnQ4RIdwEAbquAlJI-9" edge="1">
          <mxGeometry relative="1" as="geometry" />
        </mxCell>
        <mxCell id="djqAnQ4RIdwEAbquAlJI-7" value="IR - bar1.3" style="ellipse;whiteSpace=wrap;html=1;aspect=fixed;fillColor=#dae8fc;strokeColor=#6c8ebf;" parent="auzZe-Kqoyak0Po6J_6k-5" vertex="1">
          <mxGeometry x="720" y="60" width="80" height="80" as="geometry" />
        </mxCell>
        <mxCell id="djqAnQ4RIdwEAbquAlJI-12" value="" style="edgeStyle=orthogonalEdgeStyle;rounded=0;orthogonalLoop=1;jettySize=auto;html=1;" parent="auzZe-Kqoyak0Po6J_6k-5" source="djqAnQ4RIdwEAbquAlJI-9" target="djqAnQ4RIdwEAbquAlJI-11" edge="1">
          <mxGeometry relative="1" as="geometry" />
        </mxCell>
        <mxCell id="djqAnQ4RIdwEAbquAlJI-9" value="" style="ellipse;whiteSpace=wrap;html=1;aspect=fixed;fillColor=#dae8fc;strokeColor=#6c8ebf;" parent="auzZe-Kqoyak0Po6J_6k-5" vertex="1">
          <mxGeometry x="880" y="60" width="80" height="80" as="geometry" />
        </mxCell>
        <mxCell id="djqAnQ4RIdwEAbquAlJI-14" value="" style="edgeStyle=orthogonalEdgeStyle;rounded=0;orthogonalLoop=1;jettySize=auto;html=1;" parent="auzZe-Kqoyak0Po6J_6k-5" source="djqAnQ4RIdwEAbquAlJI-11" target="djqAnQ4RIdwEAbquAlJI-13" edge="1">
          <mxGeometry relative="1" as="geometry" />
        </mxCell>
        <mxCell id="djqAnQ4RIdwEAbquAlJI-11" value="" style="ellipse;whiteSpace=wrap;html=1;aspect=fixed;fillColor=#dae8fc;strokeColor=#6c8ebf;" parent="auzZe-Kqoyak0Po6J_6k-5" vertex="1">
          <mxGeometry x="1040" y="60" width="80" height="80" as="geometry" />
        </mxCell>
        <mxCell id="djqAnQ4RIdwEAbquAlJI-16" value="" style="edgeStyle=orthogonalEdgeStyle;rounded=0;orthogonalLoop=1;jettySize=auto;html=1;" parent="auzZe-Kqoyak0Po6J_6k-5" source="djqAnQ4RIdwEAbquAlJI-13" target="djqAnQ4RIdwEAbquAlJI-15" edge="1">
          <mxGeometry relative="1" as="geometry" />
        </mxCell>
        <mxCell id="djqAnQ4RIdwEAbquAlJI-13" value="" style="ellipse;whiteSpace=wrap;html=1;aspect=fixed;fillColor=#dae8fc;strokeColor=#6c8ebf;" parent="auzZe-Kqoyak0Po6J_6k-5" vertex="1">
          <mxGeometry x="1200" y="60" width="80" height="80" as="geometry" />
        </mxCell>
        <mxCell id="djqAnQ4RIdwEAbquAlJI-18" value="" style="edgeStyle=orthogonalEdgeStyle;rounded=0;orthogonalLoop=1;jettySize=auto;html=1;" parent="auzZe-Kqoyak0Po6J_6k-5" source="djqAnQ4RIdwEAbquAlJI-15" target="djqAnQ4RIdwEAbquAlJI-17" edge="1">
          <mxGeometry relative="1" as="geometry" />
        </mxCell>
        <mxCell id="djqAnQ4RIdwEAbquAlJI-15" value="" style="ellipse;whiteSpace=wrap;html=1;aspect=fixed;fillColor=#dae8fc;strokeColor=#6c8ebf;" parent="auzZe-Kqoyak0Po6J_6k-5" vertex="1">
          <mxGeometry x="1360" y="60" width="80" height="80" as="geometry" />
        </mxCell>
        <mxCell id="djqAnQ4RIdwEAbquAlJI-20" value="" style="edgeStyle=orthogonalEdgeStyle;rounded=0;orthogonalLoop=1;jettySize=auto;html=1;" parent="auzZe-Kqoyak0Po6J_6k-5" source="djqAnQ4RIdwEAbquAlJI-17" target="djqAnQ4RIdwEAbquAlJI-19" edge="1">
          <mxGeometry relative="1" as="geometry" />
        </mxCell>
        <mxCell id="djqAnQ4RIdwEAbquAlJI-17" value="" style="ellipse;whiteSpace=wrap;html=1;aspect=fixed;fillColor=#dae8fc;strokeColor=#6c8ebf;" parent="auzZe-Kqoyak0Po6J_6k-5" vertex="1">
          <mxGeometry x="1520" y="60" width="80" height="80" as="geometry" />
        </mxCell>
        <mxCell id="djqAnQ4RIdwEAbquAlJI-19" value="" style="ellipse;whiteSpace=wrap;html=1;aspect=fixed;fillColor=#dae8fc;strokeColor=#6c8ebf;" parent="auzZe-Kqoyak0Po6J_6k-5" vertex="1">
          <mxGeometry x="1680" y="60" width="80" height="80" as="geometry" />
        </mxCell>
        <mxCell id="auzZe-Kqoyak0Po6J_6k-16" value="Pre-Prod" style="swimlane;horizontal=0;whiteSpace=wrap;html=1;" parent="auzZe-Kqoyak0Po6J_6k-1" vertex="1">
          <mxGeometry x="40" y="240" width="1880" height="200" as="geometry" />
        </mxCell>
        <mxCell id="Zw-6NtkazHFqrKBdDkFL-4" value="" style="ellipse;whiteSpace=wrap;html=1;aspect=fixed;fillColor=#ffe6cc;strokeColor=#d79b00;" parent="auzZe-Kqoyak0Po6J_6k-16" vertex="1">
          <mxGeometry x="880" y="60" width="80" height="80" as="geometry" />
        </mxCell>
        <mxCell id="djqAnQ4RIdwEAbquAlJI-28" value="Deploy" style="shape=callout;whiteSpace=wrap;html=1;perimeter=calloutPerimeter;" parent="auzZe-Kqoyak0Po6J_6k-16" vertex="1">
          <mxGeometry x="880" y="-20" width="120" height="80" as="geometry" />
        </mxCell>
        <mxCell id="j0VW3USq9tJbdgEfP7cR-5" style="edgeStyle=orthogonalEdgeStyle;rounded=0;orthogonalLoop=1;jettySize=auto;html=1;entryX=0;entryY=0.5;entryDx=0;entryDy=0;fillColor=#ffe6cc;strokeColor=#d79b00;" parent="auzZe-Kqoyak0Po6J_6k-16" source="j0VW3USq9tJbdgEfP7cR-0" target="Zw-6NtkazHFqrKBdDkFL-4" edge="1">
          <mxGeometry relative="1" as="geometry" />
        </mxCell>
        <mxCell id="j0VW3USq9tJbdgEfP7cR-0" value="" style="ellipse;whiteSpace=wrap;html=1;aspect=fixed;fillColor=#ffe6cc;strokeColor=#d79b00;" parent="auzZe-Kqoyak0Po6J_6k-16" vertex="1">
          <mxGeometry x="400" y="60" width="80" height="80" as="geometry" />
        </mxCell>
        <mxCell id="auzZe-Kqoyak0Po6J_6k-22" value="Prod" style="swimlane;horizontal=0;whiteSpace=wrap;html=1;" parent="auzZe-Kqoyak0Po6J_6k-1" vertex="1">
          <mxGeometry x="40" y="440" width="1880" height="200" as="geometry" />
        </mxCell>
        <mxCell id="j0VW3USq9tJbdgEfP7cR-9" value="" style="edgeStyle=orthogonalEdgeStyle;rounded=0;orthogonalLoop=1;jettySize=auto;html=1;fillColor=#d5e8d4;strokeColor=#82b366;" parent="auzZe-Kqoyak0Po6J_6k-22" source="j0VW3USq9tJbdgEfP7cR-6" edge="1">
          <mxGeometry relative="1" as="geometry">
            <mxPoint x="1520" y="100" as="targetPoint" />
          </mxGeometry>
        </mxCell>
        <mxCell id="j0VW3USq9tJbdgEfP7cR-6" value="" style="ellipse;whiteSpace=wrap;html=1;aspect=fixed;fillColor=#d5e8d4;strokeColor=#82b366;" parent="auzZe-Kqoyak0Po6J_6k-22" vertex="1">
          <mxGeometry x="1040" y="60" width="80" height="80" as="geometry" />
        </mxCell>
        <mxCell id="auzZe-Kqoyak0Po6J_6k-27" value="" style="ellipse;whiteSpace=wrap;html=1;aspect=fixed;fillColor=#d5e8d4;strokeColor=#82b366;" parent="auzZe-Kqoyak0Po6J_6k-22" vertex="1">
          <mxGeometry x="1520" y="60" width="80" height="80" as="geometry" />
        </mxCell>
        <mxCell id="Zw-6NtkazHFqrKBdDkFL-7" value="Deploy" style="shape=callout;whiteSpace=wrap;html=1;perimeter=calloutPerimeter;" parent="auzZe-Kqoyak0Po6J_6k-22" vertex="1">
          <mxGeometry x="1520" y="-20" width="120" height="80" as="geometry" />
        </mxCell>
        <mxCell id="auzZe-Kqoyak0Po6J_6k-57" value="" style="ellipse;whiteSpace=wrap;html=1;aspect=fixed;fillColor=#dae8fc;strokeColor=#6c8ebf;" parent="auzZe-Kqoyak0Po6J_6k-1" vertex="1">
          <mxGeometry x="110" y="100" width="80" height="80" as="geometry" />
        </mxCell>
        <mxCell id="Z3MneDuqIt_lZGY9wJsY-10" value="" style="edgeStyle=orthogonalEdgeStyle;rounded=0;orthogonalLoop=1;jettySize=auto;html=1;fillColor=#dae8fc;strokeColor=#6c8ebf;exitX=1;exitY=0.5;exitDx=0;exitDy=0;entryX=0;entryY=0.5;entryDx=0;entryDy=0;" parent="auzZe-Kqoyak0Po6J_6k-1" source="auzZe-Kqoyak0Po6J_6k-57" target="Z3MneDuqIt_lZGY9wJsY-9" edge="1">
          <mxGeometry relative="1" as="geometry">
            <mxPoint x="190" y="140" as="sourcePoint" />
            <mxPoint x="610" y="140" as="targetPoint" />
          </mxGeometry>
        </mxCell>
        <mxCell id="Z3MneDuqIt_lZGY9wJsY-11" value="DEV Continous&lt;br&gt;Deployment" style="shape=callout;whiteSpace=wrap;html=1;perimeter=calloutPerimeter;base=20;" parent="auzZe-Kqoyak0Po6J_6k-1" vertex="1">
          <mxGeometry x="40" y="-30" width="120" height="80" as="geometry" />
        </mxCell>
        <mxCell id="djqAnQ4RIdwEAbquAlJI-0" value="Release Prep" style="swimlane;horizontal=0;whiteSpace=wrap;html=1;" parent="auzZe-Kqoyak0Po6J_6k-1" vertex="1">
          <mxGeometry x="40" y="640" width="1880" height="200" as="geometry" />
        </mxCell>
        <mxCell id="djqAnQ4RIdwEAbquAlJI-5" value="" style="edgeStyle=orthogonalEdgeStyle;rounded=0;orthogonalLoop=1;jettySize=auto;html=1;fillColor=#fff2cc;strokeColor=#d6b656;" parent="djqAnQ4RIdwEAbquAlJI-0" source="djqAnQ4RIdwEAbquAlJI-1" target="djqAnQ4RIdwEAbquAlJI-4" edge="1">
          <mxGeometry relative="1" as="geometry" />
        </mxCell>
        <mxCell id="djqAnQ4RIdwEAbquAlJI-1" value="" style="ellipse;whiteSpace=wrap;html=1;aspect=fixed;fillColor=#fff2cc;strokeColor=#d6b656;" parent="djqAnQ4RIdwEAbquAlJI-0" vertex="1">
          <mxGeometry x="560" y="60" width="80" height="80" as="geometry" />
        </mxCell>
        <mxCell id="djqAnQ4RIdwEAbquAlJI-4" value="" style="ellipse;whiteSpace=wrap;html=1;aspect=fixed;fillColor=#fff2cc;strokeColor=#d6b656;" parent="djqAnQ4RIdwEAbquAlJI-0" vertex="1">
          <mxGeometry x="720" y="60" width="80" height="80" as="geometry" />
        </mxCell>
        <mxCell id="j0VW3USq9tJbdgEfP7cR-14" style="edgeStyle=orthogonalEdgeStyle;rounded=0;orthogonalLoop=1;jettySize=auto;html=1;fillColor=#fff2cc;strokeColor=#d6b656;" parent="djqAnQ4RIdwEAbquAlJI-0" source="j0VW3USq9tJbdgEfP7cR-1" target="djqAnQ4RIdwEAbquAlJI-1" edge="1">
          <mxGeometry relative="1" as="geometry" />
        </mxCell>
        <mxCell id="j0VW3USq9tJbdgEfP7cR-1" value="" style="ellipse;whiteSpace=wrap;html=1;aspect=fixed;fillColor=#fff2cc;strokeColor=#d6b656;" parent="djqAnQ4RIdwEAbquAlJI-0" vertex="1">
          <mxGeometry x="400" y="60" width="80" height="80" as="geometry" />
        </mxCell>
        <mxCell id="KvydRIC6KcE_-ypGyNu0-0" value="Dev" style="shape=umlActor;verticalLabelPosition=bottom;verticalAlign=top;html=1;outlineConnect=0;" vertex="1" parent="djqAnQ4RIdwEAbquAlJI-0">
          <mxGeometry x="40" y="70" width="30" height="60" as="geometry" />
        </mxCell>
        <mxCell id="djqAnQ4RIdwEAbquAlJI-29" value="Add env specifiv config" style="shape=callout;whiteSpace=wrap;html=1;perimeter=calloutPerimeter;" parent="djqAnQ4RIdwEAbquAlJI-0" vertex="1">
          <mxGeometry x="390" y="-20" width="120" height="80" as="geometry" />
        </mxCell>
        <mxCell id="djqAnQ4RIdwEAbquAlJI-6" value="Approve &amp;amp;&lt;br&gt;Merge" style="edgeStyle=orthogonalEdgeStyle;rounded=0;orthogonalLoop=1;jettySize=auto;html=1;entryX=0;entryY=0.5;entryDx=0;entryDy=0;fillColor=#ffe6cc;strokeColor=#d79b00;curved=1;" parent="auzZe-Kqoyak0Po6J_6k-1" source="djqAnQ4RIdwEAbquAlJI-4" target="Zw-6NtkazHFqrKBdDkFL-4" edge="1">
          <mxGeometry relative="1" as="geometry">
            <mxPoint as="offset" />
          </mxGeometry>
        </mxCell>
        <mxCell id="djqAnQ4RIdwEAbquAlJI-23" value="Release Prep" style="swimlane;horizontal=0;whiteSpace=wrap;html=1;" parent="auzZe-Kqoyak0Po6J_6k-1" vertex="1">
          <mxGeometry x="40" y="840" width="1880" height="200" as="geometry" />
        </mxCell>
        <mxCell id="djqAnQ4RIdwEAbquAlJI-24" value="" style="edgeStyle=orthogonalEdgeStyle;rounded=0;orthogonalLoop=1;jettySize=auto;html=1;fillColor=#fff2cc;strokeColor=#d6b656;" parent="djqAnQ4RIdwEAbquAlJI-23" source="djqAnQ4RIdwEAbquAlJI-25" target="djqAnQ4RIdwEAbquAlJI-26" edge="1">
          <mxGeometry relative="1" as="geometry" />
        </mxCell>
        <mxCell id="djqAnQ4RIdwEAbquAlJI-25" value="" style="ellipse;whiteSpace=wrap;html=1;aspect=fixed;fillColor=#fff2cc;strokeColor=#d6b656;" parent="djqAnQ4RIdwEAbquAlJI-23" vertex="1">
          <mxGeometry x="1040" y="60" width="80" height="80" as="geometry" />
        </mxCell>
        <mxCell id="j0VW3USq9tJbdgEfP7cR-12" value="" style="edgeStyle=orthogonalEdgeStyle;rounded=0;orthogonalLoop=1;jettySize=auto;html=1;fillColor=#fff2cc;strokeColor=#d6b656;" parent="djqAnQ4RIdwEAbquAlJI-23" source="djqAnQ4RIdwEAbquAlJI-26" target="j0VW3USq9tJbdgEfP7cR-11" edge="1">
          <mxGeometry relative="1" as="geometry" />
        </mxCell>
        <mxCell id="djqAnQ4RIdwEAbquAlJI-26" value="" style="ellipse;whiteSpace=wrap;html=1;aspect=fixed;fillColor=#fff2cc;strokeColor=#d6b656;" parent="djqAnQ4RIdwEAbquAlJI-23" vertex="1">
          <mxGeometry x="1200" y="60" width="80" height="80" as="geometry" />
        </mxCell>
        <mxCell id="djqAnQ4RIdwEAbquAlJI-30" value="Add env specifiv config" style="shape=callout;whiteSpace=wrap;html=1;perimeter=calloutPerimeter;" parent="djqAnQ4RIdwEAbquAlJI-23" vertex="1">
          <mxGeometry x="1030" y="-20" width="120" height="80" as="geometry" />
        </mxCell>
        <mxCell id="j0VW3USq9tJbdgEfP7cR-11" value="" style="ellipse;whiteSpace=wrap;html=1;aspect=fixed;fillColor=#fff2cc;strokeColor=#d6b656;" parent="djqAnQ4RIdwEAbquAlJI-23" vertex="1">
          <mxGeometry x="1360" y="60" width="80" height="80" as="geometry" />
        </mxCell>
        <mxCell id="KvydRIC6KcE_-ypGyNu0-2" value="Dev" style="shape=umlActor;verticalLabelPosition=bottom;verticalAlign=top;html=1;outlineConnect=0;" vertex="1" parent="djqAnQ4RIdwEAbquAlJI-23">
          <mxGeometry x="40" y="70" width="30" height="60" as="geometry" />
        </mxCell>
        <mxCell id="KvydRIC6KcE_-ypGyNu0-3" value="Tag" style="shape=callout;whiteSpace=wrap;html=1;perimeter=calloutPerimeter;" vertex="1" parent="djqAnQ4RIdwEAbquAlJI-23">
          <mxGeometry x="1190" y="-20" width="120" height="80" as="geometry" />
        </mxCell>
        <mxCell id="djqAnQ4RIdwEAbquAlJI-27" value="Release Prep&lt;br style=&quot;border-color: var(--border-color);&quot;&gt;Merge (or cherry pick)" style="edgeStyle=orthogonalEdgeStyle;rounded=0;orthogonalLoop=1;jettySize=auto;html=1;entryX=0;entryY=0.5;entryDx=0;entryDy=0;curved=1;exitX=1;exitY=0.5;exitDx=0;exitDy=0;fillColor=#fff2cc;strokeColor=#d6b656;" parent="auzZe-Kqoyak0Po6J_6k-1" source="Zw-6NtkazHFqrKBdDkFL-4" target="djqAnQ4RIdwEAbquAlJI-25" edge="1">
          <mxGeometry x="-0.7059" y="-10" relative="1" as="geometry">
            <mxPoint as="offset" />
          </mxGeometry>
        </mxCell>
        <mxCell id="j0VW3USq9tJbdgEfP7cR-3" value="Release Prep&lt;br&gt;Merge (or cherry pick)" style="edgeStyle=orthogonalEdgeStyle;rounded=0;orthogonalLoop=1;jettySize=auto;html=1;entryX=0;entryY=0.5;entryDx=0;entryDy=0;curved=1;fillColor=#fff2cc;strokeColor=#d6b656;" parent="auzZe-Kqoyak0Po6J_6k-1" source="Z3MneDuqIt_lZGY9wJsY-9" target="j0VW3USq9tJbdgEfP7cR-1" edge="1">
          <mxGeometry relative="1" as="geometry" />
        </mxCell>
        <mxCell id="j0VW3USq9tJbdgEfP7cR-4" value="Merge" style="edgeStyle=orthogonalEdgeStyle;rounded=0;orthogonalLoop=1;jettySize=auto;html=1;entryX=0;entryY=0.5;entryDx=0;entryDy=0;curved=1;fillColor=#fff2cc;strokeColor=#d6b656;" parent="auzZe-Kqoyak0Po6J_6k-1" source="j0VW3USq9tJbdgEfP7cR-0" target="djqAnQ4RIdwEAbquAlJI-1" edge="1">
          <mxGeometry relative="1" as="geometry" />
        </mxCell>
        <mxCell id="Zw-6NtkazHFqrKBdDkFL-8" value="Approve &amp;amp;&lt;br style=&quot;border-color: var(--border-color);&quot;&gt;Merge" style="edgeStyle=orthogonalEdgeStyle;rounded=0;orthogonalLoop=1;jettySize=auto;html=1;entryX=0;entryY=0.5;entryDx=0;entryDy=0;fillColor=#d5e8d4;strokeColor=#82b366;curved=1;exitX=1;exitY=0.5;exitDx=0;exitDy=0;" parent="auzZe-Kqoyak0Po6J_6k-1" source="j0VW3USq9tJbdgEfP7cR-11" target="auzZe-Kqoyak0Po6J_6k-27" edge="1">
          <mxGeometry relative="1" as="geometry">
            <mxPoint x="1280" y="340" as="sourcePoint" />
          </mxGeometry>
        </mxCell>
        <mxCell id="j0VW3USq9tJbdgEfP7cR-10" value="Merge" style="edgeStyle=orthogonalEdgeStyle;rounded=0;orthogonalLoop=1;jettySize=auto;html=1;entryX=0;entryY=0.5;entryDx=0;entryDy=0;curved=1;fillColor=#fff2cc;strokeColor=#d6b656;" parent="auzZe-Kqoyak0Po6J_6k-1" source="j0VW3USq9tJbdgEfP7cR-6" target="djqAnQ4RIdwEAbquAlJI-26" edge="1">
          <mxGeometry relative="1" as="geometry" />
        </mxCell>
        <mxCell id="KvydRIC6KcE_-ypGyNu0-4" value="Tag" style="shape=callout;whiteSpace=wrap;html=1;perimeter=calloutPerimeter;" vertex="1" parent="auzZe-Kqoyak0Po6J_6k-1">
          <mxGeometry x="610" y="630" width="120" height="80" as="geometry" />
        </mxCell>
      </root>
    </mxGraphModel>
  </diagram>
  <diagram name="GitLabFlowPlus-simple" id="xD2ck5y4YaJmE1sz3p4f">
    <mxGraphModel dx="1886" dy="1970" grid="1" gridSize="10" guides="1" tooltips="1" connect="1" arrows="1" fold="1" page="1" pageScale="1" pageWidth="850" pageHeight="1100" math="0" shadow="0">
      <root>
        <mxCell id="Hh8DyiIi44Cfl8jL8Bf--0" />
        <mxCell id="Hh8DyiIi44Cfl8jL8Bf--1" parent="Hh8DyiIi44Cfl8jL8Bf--0" />
        <mxCell id="Hh8DyiIi44Cfl8jL8Bf--2" value="" style="ellipse;whiteSpace=wrap;html=1;aspect=fixed;fillColor=#dae8fc;strokeColor=#6c8ebf;" parent="Hh8DyiIi44Cfl8jL8Bf--1" vertex="1">
          <mxGeometry x="110" y="100" width="80" height="80" as="geometry" />
        </mxCell>
        <mxCell id="Hh8DyiIi44Cfl8jL8Bf--3" value="Master" style="swimlane;horizontal=0;whiteSpace=wrap;html=1;fillColor=#dae8fc;strokeColor=#6c8ebf;" parent="Hh8DyiIi44Cfl8jL8Bf--1" vertex="1">
          <mxGeometry x="40" y="40" width="1120" height="200" as="geometry" />
        </mxCell>
        <mxCell id="Hh8DyiIi44Cfl8jL8Bf--5" value="" style="edgeStyle=orthogonalEdgeStyle;rounded=0;orthogonalLoop=1;jettySize=auto;html=1;fillColor=#dae8fc;strokeColor=#6c8ebf;" parent="Hh8DyiIi44Cfl8jL8Bf--3" source="Hh8DyiIi44Cfl8jL8Bf--6" target="Hh8DyiIi44Cfl8jL8Bf--7" edge="1">
          <mxGeometry relative="1" as="geometry" />
        </mxCell>
        <mxCell id="Hh8DyiIi44Cfl8jL8Bf--6" value="" style="ellipse;whiteSpace=wrap;html=1;aspect=fixed;fillColor=#dae8fc;strokeColor=#6c8ebf;" parent="Hh8DyiIi44Cfl8jL8Bf--3" vertex="1">
          <mxGeometry x="570" y="60" width="80" height="80" as="geometry" />
        </mxCell>
        <mxCell id="Hh8DyiIi44Cfl8jL8Bf--7" value="" style="ellipse;whiteSpace=wrap;html=1;aspect=fixed;fillColor=#dae8fc;strokeColor=#6c8ebf;" parent="Hh8DyiIi44Cfl8jL8Bf--3" vertex="1">
          <mxGeometry x="730" y="60" width="80" height="80" as="geometry" />
        </mxCell>
        <mxCell id="Hh8DyiIi44Cfl8jL8Bf--8" value="" style="ellipse;whiteSpace=wrap;html=1;aspect=fixed;fillColor=#dae8fc;strokeColor=#6c8ebf;" parent="Hh8DyiIi44Cfl8jL8Bf--3" vertex="1">
          <mxGeometry x="250" y="60" width="80" height="80" as="geometry" />
        </mxCell>
        <mxCell id="Hh8DyiIi44Cfl8jL8Bf--9" style="edgeStyle=orthogonalEdgeStyle;rounded=0;orthogonalLoop=1;jettySize=auto;html=1;fillColor=#dae8fc;strokeColor=#6c8ebf;exitX=1;exitY=0.5;exitDx=0;exitDy=0;entryX=0;entryY=0.5;entryDx=0;entryDy=0;" parent="Hh8DyiIi44Cfl8jL8Bf--3" source="Hh8DyiIi44Cfl8jL8Bf--8" target="Hh8DyiIi44Cfl8jL8Bf--6" edge="1">
          <mxGeometry relative="1" as="geometry">
            <mxPoint x="149.5" y="90" as="sourcePoint" />
            <mxPoint x="550" y="110" as="targetPoint" />
          </mxGeometry>
        </mxCell>
        <mxCell id="Hh8DyiIi44Cfl8jL8Bf--10" value="Pre-Prod" style="swimlane;horizontal=0;whiteSpace=wrap;html=1;" parent="Hh8DyiIi44Cfl8jL8Bf--1" vertex="1">
          <mxGeometry x="40" y="240" width="1120" height="200" as="geometry" />
        </mxCell>
        <mxCell id="Hh8DyiIi44Cfl8jL8Bf--11" value="" style="ellipse;whiteSpace=wrap;html=1;aspect=fixed;fillColor=#ffe6cc;strokeColor=#d79b00;" parent="Hh8DyiIi44Cfl8jL8Bf--10" vertex="1">
          <mxGeometry x="730" y="60" width="80" height="80" as="geometry" />
        </mxCell>
        <mxCell id="Hh8DyiIi44Cfl8jL8Bf--12" value="Deploy" style="shape=callout;whiteSpace=wrap;html=1;perimeter=calloutPerimeter;" parent="Hh8DyiIi44Cfl8jL8Bf--10" vertex="1">
          <mxGeometry x="710" y="-30" width="120" height="80" as="geometry" />
        </mxCell>
        <mxCell id="Hh8DyiIi44Cfl8jL8Bf--13" value="Prod" style="swimlane;horizontal=0;whiteSpace=wrap;html=1;" parent="Hh8DyiIi44Cfl8jL8Bf--1" vertex="1">
          <mxGeometry x="40" y="440" width="1120" height="200" as="geometry" />
        </mxCell>
        <mxCell id="Hh8DyiIi44Cfl8jL8Bf--14" value="" style="ellipse;whiteSpace=wrap;html=1;aspect=fixed;fillColor=#d5e8d4;strokeColor=#82b366;" parent="Hh8DyiIi44Cfl8jL8Bf--13" vertex="1">
          <mxGeometry x="880" y="60" width="80" height="80" as="geometry" />
        </mxCell>
        <mxCell id="Hh8DyiIi44Cfl8jL8Bf--15" value="Deploy" style="shape=callout;whiteSpace=wrap;html=1;perimeter=calloutPerimeter;" parent="Hh8DyiIi44Cfl8jL8Bf--13" vertex="1">
          <mxGeometry x="860" y="-30" width="120" height="80" as="geometry" />
        </mxCell>
        <mxCell id="Hh8DyiIi44Cfl8jL8Bf--16" value="" style="ellipse;whiteSpace=wrap;html=1;aspect=fixed;fillColor=#dae8fc;strokeColor=#6c8ebf;" parent="Hh8DyiIi44Cfl8jL8Bf--1" vertex="1">
          <mxGeometry x="110" y="100" width="80" height="80" as="geometry" />
        </mxCell>
        <mxCell id="Hh8DyiIi44Cfl8jL8Bf--17" style="edgeStyle=orthogonalEdgeStyle;rounded=0;orthogonalLoop=1;jettySize=auto;html=1;entryX=0;entryY=0.5;entryDx=0;entryDy=0;curved=1;fillColor=#ffe6cc;strokeColor=#d79b00;" parent="Hh8DyiIi44Cfl8jL8Bf--1" source="Hh8DyiIi44Cfl8jL8Bf--6" target="Hh8DyiIi44Cfl8jL8Bf--11" edge="1">
          <mxGeometry relative="1" as="geometry" />
        </mxCell>
        <mxCell id="Hh8DyiIi44Cfl8jL8Bf--18" style="edgeStyle=orthogonalEdgeStyle;rounded=0;orthogonalLoop=1;jettySize=auto;html=1;entryX=0;entryY=0.5;entryDx=0;entryDy=0;fillColor=#d5e8d4;strokeColor=#82b366;curved=1;" parent="Hh8DyiIi44Cfl8jL8Bf--1" source="Hh8DyiIi44Cfl8jL8Bf--11" target="Hh8DyiIi44Cfl8jL8Bf--14" edge="1">
          <mxGeometry relative="1" as="geometry" />
        </mxCell>
        <mxCell id="Hh8DyiIi44Cfl8jL8Bf--19" value="Feature" style="swimlane;horizontal=0;whiteSpace=wrap;html=1;fillColor=none;strokeColor=#6c8ebf;" parent="Hh8DyiIi44Cfl8jL8Bf--1" vertex="1">
          <mxGeometry x="40" y="-160" width="1120" height="200" as="geometry" />
        </mxCell>
        <mxCell id="Hh8DyiIi44Cfl8jL8Bf--20" value="Dev" style="shape=umlActor;verticalLabelPosition=bottom;verticalAlign=top;html=1;outlineConnect=0;" parent="Hh8DyiIi44Cfl8jL8Bf--19" vertex="1">
          <mxGeometry x="30" y="70" width="30" height="60" as="geometry" />
        </mxCell>
        <mxCell id="Hh8DyiIi44Cfl8jL8Bf--21" value="" style="ellipse;whiteSpace=wrap;html=1;aspect=fixed;fillColor=#fff2cc;strokeColor=#d6b656;" parent="Hh8DyiIi44Cfl8jL8Bf--19" vertex="1">
          <mxGeometry x="409.5" y="60" width="80" height="80" as="geometry" />
        </mxCell>
        <mxCell id="Hh8DyiIi44Cfl8jL8Bf--22" style="edgeStyle=orthogonalEdgeStyle;rounded=0;orthogonalLoop=1;jettySize=auto;html=1;fillColor=#fff2cc;strokeColor=#d6b656;" parent="Hh8DyiIi44Cfl8jL8Bf--19" source="Hh8DyiIi44Cfl8jL8Bf--23" target="Hh8DyiIi44Cfl8jL8Bf--21" edge="1">
          <mxGeometry relative="1" as="geometry" />
        </mxCell>
        <mxCell id="Hh8DyiIi44Cfl8jL8Bf--23" value="" style="ellipse;whiteSpace=wrap;html=1;aspect=fixed;fillColor=#fff2cc;strokeColor=#d6b656;" parent="Hh8DyiIi44Cfl8jL8Bf--19" vertex="1">
          <mxGeometry x="249.5" y="60" width="80" height="80" as="geometry" />
        </mxCell>
        <mxCell id="Hh8DyiIi44Cfl8jL8Bf--24" value="Branch" style="edgeStyle=orthogonalEdgeStyle;rounded=0;orthogonalLoop=1;jettySize=auto;html=1;entryX=0;entryY=0.5;entryDx=0;entryDy=0;curved=1;fillColor=#fff2cc;strokeColor=#d6b656;exitX=1;exitY=0.5;exitDx=0;exitDy=0;" parent="Hh8DyiIi44Cfl8jL8Bf--1" source="Hh8DyiIi44Cfl8jL8Bf--16" target="Hh8DyiIi44Cfl8jL8Bf--23" edge="1">
          <mxGeometry x="0.3333" relative="1" as="geometry">
            <mxPoint as="offset" />
            <mxPoint x="189.5" y="130" as="sourcePoint" />
          </mxGeometry>
        </mxCell>
        <mxCell id="Hh8DyiIi44Cfl8jL8Bf--25" value="" style="edgeStyle=orthogonalEdgeStyle;rounded=0;orthogonalLoop=1;jettySize=auto;html=1;fillColor=#dae8fc;strokeColor=#6c8ebf;exitX=1;exitY=0.5;exitDx=0;exitDy=0;entryX=0;entryY=0.5;entryDx=0;entryDy=0;" parent="Hh8DyiIi44Cfl8jL8Bf--1" source="Hh8DyiIi44Cfl8jL8Bf--16" target="Hh8DyiIi44Cfl8jL8Bf--8" edge="1">
          <mxGeometry relative="1" as="geometry">
            <mxPoint x="190" y="140" as="sourcePoint" />
            <mxPoint x="610" y="140" as="targetPoint" />
          </mxGeometry>
        </mxCell>
        <mxCell id="Hh8DyiIi44Cfl8jL8Bf--26" value="Merge" style="edgeStyle=orthogonalEdgeStyle;rounded=0;orthogonalLoop=1;jettySize=auto;html=1;entryX=0;entryY=0.5;entryDx=0;entryDy=0;curved=1;fillColor=#fff2cc;strokeColor=#d6b656;exitX=1;exitY=0.5;exitDx=0;exitDy=0;" parent="Hh8DyiIi44Cfl8jL8Bf--1" source="Hh8DyiIi44Cfl8jL8Bf--8" target="Hh8DyiIi44Cfl8jL8Bf--21" edge="1">
          <mxGeometry x="0.3571" relative="1" as="geometry">
            <mxPoint as="offset" />
            <mxPoint x="369.5" y="130" as="sourcePoint" />
          </mxGeometry>
        </mxCell>
        <mxCell id="Hh8DyiIi44Cfl8jL8Bf--27" value="PR" style="edgeStyle=orthogonalEdgeStyle;rounded=0;orthogonalLoop=1;jettySize=auto;html=1;curved=1;fillColor=#fff2cc;strokeColor=#d6b656;entryX=0;entryY=0.5;entryDx=0;entryDy=0;" parent="Hh8DyiIi44Cfl8jL8Bf--1" source="Hh8DyiIi44Cfl8jL8Bf--21" target="Hh8DyiIi44Cfl8jL8Bf--6" edge="1">
          <mxGeometry x="-0.1824" y="-30" relative="1" as="geometry">
            <mxPoint x="609.5" y="130" as="targetPoint" />
            <mxPoint as="offset" />
          </mxGeometry>
        </mxCell>
        <mxCell id="Hh8DyiIi44Cfl8jL8Bf--28" value="Deploy" style="shape=callout;whiteSpace=wrap;html=1;perimeter=calloutPerimeter;base=20;" parent="Hh8DyiIi44Cfl8jL8Bf--1" vertex="1">
          <mxGeometry x="590" y="10" width="120" height="80" as="geometry" />
        </mxCell>
      </root>
    </mxGraphModel>
  </diagram>
  <diagram name="GitLabFlowPlus" id="HUXcEi-417PWH31S-bJb">
    <mxGraphModel dx="1886" dy="1970" grid="1" gridSize="10" guides="1" tooltips="1" connect="1" arrows="1" fold="1" page="1" pageScale="1" pageWidth="850" pageHeight="1100" math="0" shadow="0">
      <root>
        <mxCell id="XQJsoJnTUxO_ML1jgbQg-0" />
        <mxCell id="XQJsoJnTUxO_ML1jgbQg-1" parent="XQJsoJnTUxO_ML1jgbQg-0" />
        <mxCell id="XQJsoJnTUxO_ML1jgbQg-2" style="edgeStyle=orthogonalEdgeStyle;rounded=0;orthogonalLoop=1;jettySize=auto;html=1;entryX=0;entryY=0.5;entryDx=0;entryDy=0;fillColor=#dae8fc;strokeColor=#6c8ebf;" parent="XQJsoJnTUxO_ML1jgbQg-1" source="XQJsoJnTUxO_ML1jgbQg-3" target="XQJsoJnTUxO_ML1jgbQg-8" edge="1">
          <mxGeometry relative="1" as="geometry" />
        </mxCell>
        <mxCell id="XQJsoJnTUxO_ML1jgbQg-3" value="" style="ellipse;whiteSpace=wrap;html=1;aspect=fixed;fillColor=#dae8fc;strokeColor=#6c8ebf;" parent="XQJsoJnTUxO_ML1jgbQg-1" vertex="1">
          <mxGeometry x="120" y="-600" width="80" height="80" as="geometry" />
        </mxCell>
        <mxCell id="XQJsoJnTUxO_ML1jgbQg-4" value="Dev" style="swimlane;horizontal=0;whiteSpace=wrap;html=1;fillColor=#dae8fc;strokeColor=#6c8ebf;" parent="XQJsoJnTUxO_ML1jgbQg-1" vertex="1">
          <mxGeometry x="50" y="-660" width="3240" height="200" as="geometry" />
        </mxCell>
        <mxCell id="XQJsoJnTUxO_ML1jgbQg-6" value="" style="ellipse;whiteSpace=wrap;html=1;aspect=fixed;fillColor=#dae8fc;strokeColor=#6c8ebf;" parent="XQJsoJnTUxO_ML1jgbQg-4" vertex="1">
          <mxGeometry x="570" y="60" width="80" height="80" as="geometry" />
        </mxCell>
        <mxCell id="DRi3PHCycDCZfU3tug0y-3" value="" style="edgeStyle=orthogonalEdgeStyle;rounded=0;orthogonalLoop=1;jettySize=auto;html=1;fillColor=#dae8fc;strokeColor=#6c8ebf;entryX=0;entryY=0.5;entryDx=0;entryDy=0;" parent="XQJsoJnTUxO_ML1jgbQg-4" source="XQJsoJnTUxO_ML1jgbQg-8" target="XQJsoJnTUxO_ML1jgbQg-6" edge="1">
          <mxGeometry relative="1" as="geometry">
            <mxPoint x="540" y="100" as="targetPoint" />
          </mxGeometry>
        </mxCell>
        <mxCell id="XQJsoJnTUxO_ML1jgbQg-8" value="" style="ellipse;whiteSpace=wrap;html=1;aspect=fixed;fillColor=#dae8fc;strokeColor=#6c8ebf;" parent="XQJsoJnTUxO_ML1jgbQg-4" vertex="1">
          <mxGeometry x="250" y="60" width="80" height="80" as="geometry" />
        </mxCell>
        <mxCell id="DRi3PHCycDCZfU3tug0y-6" value="" style="ellipse;whiteSpace=wrap;html=1;aspect=fixed;fillColor=#dae8fc;strokeColor=#6c8ebf;" parent="XQJsoJnTUxO_ML1jgbQg-4" vertex="1">
          <mxGeometry x="720" y="60" width="80" height="80" as="geometry" />
        </mxCell>
        <mxCell id="DRi3PHCycDCZfU3tug0y-7" value="" style="edgeStyle=orthogonalEdgeStyle;rounded=0;orthogonalLoop=1;jettySize=auto;html=1;fillColor=#dae8fc;strokeColor=#6c8ebf;" parent="XQJsoJnTUxO_ML1jgbQg-4" source="XQJsoJnTUxO_ML1jgbQg-6" target="DRi3PHCycDCZfU3tug0y-6" edge="1">
          <mxGeometry relative="1" as="geometry">
            <mxPoint x="650" y="100" as="sourcePoint" />
            <mxPoint x="1170" y="100" as="targetPoint" />
          </mxGeometry>
        </mxCell>
        <mxCell id="XQJsoJnTUxO_ML1jgbQg-13" value="Pre-Prod" style="swimlane;horizontal=0;whiteSpace=wrap;html=1;" parent="XQJsoJnTUxO_ML1jgbQg-1" vertex="1">
          <mxGeometry x="50" y="-460" width="3240" height="200" as="geometry" />
        </mxCell>
        <mxCell id="XQJsoJnTUxO_ML1jgbQg-15" value="" style="ellipse;whiteSpace=wrap;html=1;aspect=fixed;fillColor=#ffe6cc;strokeColor=#d79b00;" parent="XQJsoJnTUxO_ML1jgbQg-13" vertex="1">
          <mxGeometry x="730" y="60" width="80" height="80" as="geometry" />
        </mxCell>
        <mxCell id="DRi3PHCycDCZfU3tug0y-46" style="edgeStyle=orthogonalEdgeStyle;rounded=0;orthogonalLoop=1;jettySize=auto;html=1;entryX=0;entryY=0.5;entryDx=0;entryDy=0;fillColor=#ffe6cc;strokeColor=#d79b00;" parent="XQJsoJnTUxO_ML1jgbQg-13" source="DRi3PHCycDCZfU3tug0y-45" target="XQJsoJnTUxO_ML1jgbQg-15" edge="1">
          <mxGeometry relative="1" as="geometry" />
        </mxCell>
        <mxCell id="DRi3PHCycDCZfU3tug0y-45" value="" style="ellipse;whiteSpace=wrap;html=1;aspect=fixed;fillColor=#ffe6cc;strokeColor=#d79b00;" parent="XQJsoJnTUxO_ML1jgbQg-13" vertex="1">
          <mxGeometry x="70" y="60" width="80" height="80" as="geometry" />
        </mxCell>
        <mxCell id="XQJsoJnTUxO_ML1jgbQg-18" value="Prod" style="swimlane;horizontal=0;whiteSpace=wrap;html=1;" parent="XQJsoJnTUxO_ML1jgbQg-1" vertex="1">
          <mxGeometry x="50" y="-260" width="3240" height="200" as="geometry" />
        </mxCell>
        <mxCell id="DRi3PHCycDCZfU3tug0y-47" value="" style="ellipse;whiteSpace=wrap;html=1;aspect=fixed;fillColor=#d5e8d4;strokeColor=#82b366;" parent="XQJsoJnTUxO_ML1jgbQg-18" vertex="1">
          <mxGeometry x="70" y="60" width="80" height="80" as="geometry" />
        </mxCell>
        <mxCell id="DRi3PHCycDCZfU3tug0y-0" value="Branch" style="edgeStyle=orthogonalEdgeStyle;rounded=0;orthogonalLoop=1;jettySize=auto;html=1;entryX=0;entryY=0.5;entryDx=0;entryDy=0;curved=1;fillColor=#fff2cc;strokeColor=#d6b656;" parent="XQJsoJnTUxO_ML1jgbQg-1" source="XQJsoJnTUxO_ML1jgbQg-22" target="c2KTPCId2U5cqxJreW77-4" edge="1">
          <mxGeometry x="0.3333" relative="1" as="geometry">
            <mxPoint as="offset" />
          </mxGeometry>
        </mxCell>
        <mxCell id="XQJsoJnTUxO_ML1jgbQg-22" value="" style="ellipse;whiteSpace=wrap;html=1;aspect=fixed;fillColor=#dae8fc;strokeColor=#6c8ebf;" parent="XQJsoJnTUxO_ML1jgbQg-1" vertex="1">
          <mxGeometry x="120" y="-600" width="80" height="80" as="geometry" />
        </mxCell>
        <mxCell id="XQJsoJnTUxO_ML1jgbQg-23" value="PR" style="edgeStyle=orthogonalEdgeStyle;rounded=0;orthogonalLoop=1;jettySize=auto;html=1;entryX=0;entryY=0.5;entryDx=0;entryDy=0;curved=1;fillColor=#ffe6cc;strokeColor=#d79b00;" parent="XQJsoJnTUxO_ML1jgbQg-1" source="XQJsoJnTUxO_ML1jgbQg-6" target="XQJsoJnTUxO_ML1jgbQg-15" edge="1">
          <mxGeometry x="0.1429" relative="1" as="geometry">
            <mxPoint as="offset" />
          </mxGeometry>
        </mxCell>
        <mxCell id="XQJsoJnTUxO_ML1jgbQg-24" value="PR" style="edgeStyle=orthogonalEdgeStyle;rounded=0;orthogonalLoop=1;jettySize=auto;html=1;entryX=0;entryY=0.5;entryDx=0;entryDy=0;curved=1;fillColor=#ffe6cc;strokeColor=#d79b00;exitX=1;exitY=0.5;exitDx=0;exitDy=0;" parent="XQJsoJnTUxO_ML1jgbQg-1" source="XQJsoJnTUxO_ML1jgbQg-11" target="XQJsoJnTUxO_ML1jgbQg-16" edge="1">
          <mxGeometry x="0.207" y="6" relative="1" as="geometry">
            <mxPoint x="1620" y="-560" as="sourcePoint" />
            <mxPoint as="offset" />
          </mxGeometry>
        </mxCell>
        <mxCell id="XQJsoJnTUxO_ML1jgbQg-25" value="Deploy" style="shape=callout;whiteSpace=wrap;html=1;perimeter=calloutPerimeter;" parent="XQJsoJnTUxO_ML1jgbQg-1" vertex="1">
          <mxGeometry x="760" y="-490" width="120" height="80" as="geometry" />
        </mxCell>
        <mxCell id="c2KTPCId2U5cqxJreW77-0" value="Feature" style="swimlane;horizontal=0;whiteSpace=wrap;html=1;" parent="XQJsoJnTUxO_ML1jgbQg-1" vertex="1">
          <mxGeometry x="50" y="-860" width="3240" height="200" as="geometry" />
        </mxCell>
        <mxCell id="c2KTPCId2U5cqxJreW77-2" value="" style="ellipse;whiteSpace=wrap;html=1;aspect=fixed;fillColor=#fff2cc;strokeColor=#d6b656;" parent="c2KTPCId2U5cqxJreW77-0" vertex="1">
          <mxGeometry x="410" y="60" width="80" height="80" as="geometry" />
        </mxCell>
        <mxCell id="c2KTPCId2U5cqxJreW77-3" style="edgeStyle=orthogonalEdgeStyle;rounded=0;orthogonalLoop=1;jettySize=auto;html=1;fillColor=#fff2cc;strokeColor=#d6b656;" parent="c2KTPCId2U5cqxJreW77-0" source="c2KTPCId2U5cqxJreW77-4" target="c2KTPCId2U5cqxJreW77-2" edge="1">
          <mxGeometry relative="1" as="geometry" />
        </mxCell>
        <mxCell id="c2KTPCId2U5cqxJreW77-4" value="" style="ellipse;whiteSpace=wrap;html=1;aspect=fixed;fillColor=#fff2cc;strokeColor=#d6b656;" parent="c2KTPCId2U5cqxJreW77-0" vertex="1">
          <mxGeometry x="250" y="60" width="80" height="80" as="geometry" />
        </mxCell>
        <mxCell id="c2KTPCId2U5cqxJreW77-5" value="Dev" style="shape=umlActor;verticalLabelPosition=bottom;verticalAlign=top;html=1;outlineConnect=0;" parent="c2KTPCId2U5cqxJreW77-0" vertex="1">
          <mxGeometry x="30" y="70" width="30" height="60" as="geometry" />
        </mxCell>
        <mxCell id="DRi3PHCycDCZfU3tug0y-10" value="" style="edgeStyle=orthogonalEdgeStyle;rounded=0;orthogonalLoop=1;jettySize=auto;html=1;fillColor=#fff2cc;strokeColor=#d6b656;" parent="c2KTPCId2U5cqxJreW77-0" source="DRi3PHCycDCZfU3tug0y-5" target="DRi3PHCycDCZfU3tug0y-9" edge="1">
          <mxGeometry relative="1" as="geometry" />
        </mxCell>
        <mxCell id="DRi3PHCycDCZfU3tug0y-5" value="" style="ellipse;whiteSpace=wrap;html=1;aspect=fixed;fillColor=#fff2cc;strokeColor=#d6b656;" parent="c2KTPCId2U5cqxJreW77-0" vertex="1">
          <mxGeometry x="860" y="60" width="80" height="80" as="geometry" />
        </mxCell>
        <mxCell id="DRi3PHCycDCZfU3tug0y-9" value="" style="ellipse;whiteSpace=wrap;html=1;aspect=fixed;fillColor=#fff2cc;strokeColor=#d6b656;" parent="c2KTPCId2U5cqxJreW77-0" vertex="1">
          <mxGeometry x="1020" y="60" width="80" height="80" as="geometry" />
        </mxCell>
        <mxCell id="c2KTPCId2U5cqxJreW77-9" value="Hotifx" style="swimlane;horizontal=0;whiteSpace=wrap;html=1;" parent="XQJsoJnTUxO_ML1jgbQg-1" vertex="1">
          <mxGeometry x="50" y="-1060" width="3240" height="200" as="geometry" />
        </mxCell>
        <mxCell id="c2KTPCId2U5cqxJreW77-14" value="Dev" style="shape=umlActor;verticalLabelPosition=bottom;verticalAlign=top;html=1;outlineConnect=0;" parent="c2KTPCId2U5cqxJreW77-9" vertex="1">
          <mxGeometry x="30" y="70" width="30" height="60" as="geometry" />
        </mxCell>
        <mxCell id="DRi3PHCycDCZfU3tug0y-1" value="Merge" style="edgeStyle=orthogonalEdgeStyle;rounded=0;orthogonalLoop=1;jettySize=auto;html=1;entryX=0;entryY=0.5;entryDx=0;entryDy=0;curved=1;fillColor=#fff2cc;strokeColor=#d6b656;" parent="XQJsoJnTUxO_ML1jgbQg-1" source="XQJsoJnTUxO_ML1jgbQg-8" target="c2KTPCId2U5cqxJreW77-2" edge="1">
          <mxGeometry x="0.3571" relative="1" as="geometry">
            <mxPoint as="offset" />
          </mxGeometry>
        </mxCell>
        <mxCell id="DRi3PHCycDCZfU3tug0y-4" value="PR" style="edgeStyle=orthogonalEdgeStyle;rounded=0;orthogonalLoop=1;jettySize=auto;html=1;curved=1;fillColor=#fff2cc;strokeColor=#d6b656;entryX=0;entryY=0.5;entryDx=0;entryDy=0;" parent="XQJsoJnTUxO_ML1jgbQg-1" source="c2KTPCId2U5cqxJreW77-2" target="XQJsoJnTUxO_ML1jgbQg-6" edge="1">
          <mxGeometry x="-0.4286" relative="1" as="geometry">
            <mxPoint x="590" y="-600" as="targetPoint" />
            <mxPoint as="offset" />
          </mxGeometry>
        </mxCell>
        <mxCell id="DRi3PHCycDCZfU3tug0y-51" value="Merge" style="edgeStyle=orthogonalEdgeStyle;rounded=0;orthogonalLoop=1;jettySize=auto;html=1;entryX=0;entryY=0.5;entryDx=0;entryDy=0;fillColor=#f8cecc;strokeColor=#b85450;curved=1;" parent="XQJsoJnTUxO_ML1jgbQg-1" source="XQJsoJnTUxO_ML1jgbQg-12" target="DRi3PHCycDCZfU3tug0y-49" edge="1">
          <mxGeometry x="0.6739" y="-21" relative="1" as="geometry">
            <mxPoint as="offset" />
          </mxGeometry>
        </mxCell>
        <mxCell id="DRi3PHCycDCZfU3tug0y-53" value="" style="edgeStyle=orthogonalEdgeStyle;rounded=0;orthogonalLoop=1;jettySize=auto;html=1;fillColor=#dae8fc;strokeColor=#6c8ebf;" parent="XQJsoJnTUxO_ML1jgbQg-1" source="XQJsoJnTUxO_ML1jgbQg-12" target="DRi3PHCycDCZfU3tug0y-52" edge="1">
          <mxGeometry relative="1" as="geometry" />
        </mxCell>
        <mxCell id="XQJsoJnTUxO_ML1jgbQg-12" value="" style="ellipse;whiteSpace=wrap;html=1;aspect=fixed;fillColor=#dae8fc;strokeColor=#6c8ebf;" parent="XQJsoJnTUxO_ML1jgbQg-1" vertex="1">
          <mxGeometry x="2419" y="-600" width="80" height="80" as="geometry" />
        </mxCell>
        <mxCell id="DRi3PHCycDCZfU3tug0y-28" value="" style="edgeStyle=orthogonalEdgeStyle;rounded=0;orthogonalLoop=1;jettySize=auto;html=1;fillColor=#ffe6cc;strokeColor=#d79b00;" parent="XQJsoJnTUxO_ML1jgbQg-1" source="XQJsoJnTUxO_ML1jgbQg-16" target="DRi3PHCycDCZfU3tug0y-27" edge="1">
          <mxGeometry relative="1" as="geometry" />
        </mxCell>
        <mxCell id="XQJsoJnTUxO_ML1jgbQg-16" value="" style="ellipse;whiteSpace=wrap;html=1;aspect=fixed;fillColor=#ffe6cc;strokeColor=#d79b00;" parent="XQJsoJnTUxO_ML1jgbQg-1" vertex="1">
          <mxGeometry x="1549" y="-400" width="80" height="80" as="geometry" />
        </mxCell>
        <mxCell id="XQJsoJnTUxO_ML1jgbQg-17" value="Deploy" style="shape=callout;whiteSpace=wrap;html=1;perimeter=calloutPerimeter;" parent="XQJsoJnTUxO_ML1jgbQg-1" vertex="1">
          <mxGeometry x="1529" y="-490" width="120" height="80" as="geometry" />
        </mxCell>
        <mxCell id="DRi3PHCycDCZfU3tug0y-21" value="" style="edgeStyle=orthogonalEdgeStyle;rounded=0;orthogonalLoop=1;jettySize=auto;html=1;fillColor=#d5e8d4;strokeColor=#82b366;" parent="XQJsoJnTUxO_ML1jgbQg-1" source="XQJsoJnTUxO_ML1jgbQg-19" target="DRi3PHCycDCZfU3tug0y-20" edge="1">
          <mxGeometry relative="1" as="geometry" />
        </mxCell>
        <mxCell id="XQJsoJnTUxO_ML1jgbQg-19" value="" style="ellipse;whiteSpace=wrap;html=1;aspect=fixed;fillColor=#d5e8d4;strokeColor=#82b366;" parent="XQJsoJnTUxO_ML1jgbQg-1" vertex="1">
          <mxGeometry x="1699" y="-200" width="80" height="80" as="geometry" />
        </mxCell>
        <mxCell id="XQJsoJnTUxO_ML1jgbQg-20" value="Deploy" style="shape=callout;whiteSpace=wrap;html=1;perimeter=calloutPerimeter;" parent="XQJsoJnTUxO_ML1jgbQg-1" vertex="1">
          <mxGeometry x="1679" y="-290" width="120" height="80" as="geometry" />
        </mxCell>
        <mxCell id="XQJsoJnTUxO_ML1jgbQg-10" value="" style="edgeStyle=orthogonalEdgeStyle;rounded=0;orthogonalLoop=1;jettySize=auto;html=1;fillColor=#dae8fc;strokeColor=#6c8ebf;" parent="XQJsoJnTUxO_ML1jgbQg-1" target="XQJsoJnTUxO_ML1jgbQg-12" edge="1">
          <mxGeometry relative="1" as="geometry">
            <mxPoint x="1460" y="-560" as="sourcePoint" />
          </mxGeometry>
        </mxCell>
        <mxCell id="XQJsoJnTUxO_ML1jgbQg-26" value="PR" style="edgeStyle=orthogonalEdgeStyle;rounded=0;orthogonalLoop=1;jettySize=auto;html=1;entryX=0;entryY=0.5;entryDx=0;entryDy=0;fillColor=#d5e8d4;strokeColor=#82b366;curved=1;" parent="XQJsoJnTUxO_ML1jgbQg-1" source="XQJsoJnTUxO_ML1jgbQg-16" target="XQJsoJnTUxO_ML1jgbQg-19" edge="1">
          <mxGeometry x="0.2959" relative="1" as="geometry">
            <mxPoint as="offset" />
          </mxGeometry>
        </mxCell>
        <mxCell id="XQJsoJnTUxO_ML1jgbQg-11" value="" style="ellipse;whiteSpace=wrap;html=1;aspect=fixed;fillColor=#dae8fc;strokeColor=#6c8ebf;" parent="XQJsoJnTUxO_ML1jgbQg-1" vertex="1">
          <mxGeometry x="1380" y="-600" width="80" height="80" as="geometry" />
        </mxCell>
        <mxCell id="XQJsoJnTUxO_ML1jgbQg-5" value="" style="edgeStyle=orthogonalEdgeStyle;rounded=0;orthogonalLoop=1;jettySize=auto;html=1;fillColor=#dae8fc;strokeColor=#6c8ebf;" parent="XQJsoJnTUxO_ML1jgbQg-1" source="DRi3PHCycDCZfU3tug0y-13" target="XQJsoJnTUxO_ML1jgbQg-11" edge="1">
          <mxGeometry relative="1" as="geometry" />
        </mxCell>
        <mxCell id="DRi3PHCycDCZfU3tug0y-8" value="Branch" style="edgeStyle=orthogonalEdgeStyle;rounded=0;orthogonalLoop=1;jettySize=auto;html=1;entryX=0;entryY=0.5;entryDx=0;entryDy=0;fillColor=#fff2cc;strokeColor=#d6b656;curved=1;" parent="XQJsoJnTUxO_ML1jgbQg-1" source="DRi3PHCycDCZfU3tug0y-6" target="DRi3PHCycDCZfU3tug0y-5" edge="1">
          <mxGeometry x="0.462" relative="1" as="geometry">
            <mxPoint y="1" as="offset" />
          </mxGeometry>
        </mxCell>
        <mxCell id="DRi3PHCycDCZfU3tug0y-16" value="PR" style="edgeStyle=orthogonalEdgeStyle;rounded=0;orthogonalLoop=1;jettySize=auto;html=1;entryX=0;entryY=0.5;entryDx=0;entryDy=0;fillColor=#fff2cc;strokeColor=#d6b656;curved=1;" parent="XQJsoJnTUxO_ML1jgbQg-1" source="DRi3PHCycDCZfU3tug0y-11" target="XQJsoJnTUxO_ML1jgbQg-11" edge="1">
          <mxGeometry x="-0.4444" y="-5" relative="1" as="geometry">
            <mxPoint as="offset" />
          </mxGeometry>
        </mxCell>
        <mxCell id="DRi3PHCycDCZfU3tug0y-11" value="" style="ellipse;whiteSpace=wrap;html=1;aspect=fixed;fillColor=#fff2cc;strokeColor=#d6b656;" parent="XQJsoJnTUxO_ML1jgbQg-1" vertex="1">
          <mxGeometry x="1230" y="-800" width="80" height="80" as="geometry" />
        </mxCell>
        <mxCell id="DRi3PHCycDCZfU3tug0y-12" value="" style="edgeStyle=orthogonalEdgeStyle;rounded=0;orthogonalLoop=1;jettySize=auto;html=1;fillColor=#fff2cc;strokeColor=#d6b656;" parent="XQJsoJnTUxO_ML1jgbQg-1" source="DRi3PHCycDCZfU3tug0y-9" target="DRi3PHCycDCZfU3tug0y-11" edge="1">
          <mxGeometry relative="1" as="geometry" />
        </mxCell>
        <mxCell id="DRi3PHCycDCZfU3tug0y-14" value="" style="edgeStyle=orthogonalEdgeStyle;rounded=0;orthogonalLoop=1;jettySize=auto;html=1;fillColor=#dae8fc;strokeColor=#6c8ebf;" parent="XQJsoJnTUxO_ML1jgbQg-1" source="DRi3PHCycDCZfU3tug0y-6" target="DRi3PHCycDCZfU3tug0y-13" edge="1">
          <mxGeometry relative="1" as="geometry">
            <mxPoint x="850" y="-560" as="sourcePoint" />
            <mxPoint x="1220" y="-560" as="targetPoint" />
          </mxGeometry>
        </mxCell>
        <mxCell id="DRi3PHCycDCZfU3tug0y-15" value="Merge" style="edgeStyle=orthogonalEdgeStyle;rounded=0;orthogonalLoop=1;jettySize=auto;html=1;entryX=0;entryY=0.5;entryDx=0;entryDy=0;fillColor=#fff2cc;strokeColor=#d6b656;curved=1;" parent="XQJsoJnTUxO_ML1jgbQg-1" source="DRi3PHCycDCZfU3tug0y-13" target="DRi3PHCycDCZfU3tug0y-11" edge="1">
          <mxGeometry x="0.429" relative="1" as="geometry">
            <mxPoint as="offset" />
          </mxGeometry>
        </mxCell>
        <mxCell id="DRi3PHCycDCZfU3tug0y-13" value="" style="ellipse;whiteSpace=wrap;html=1;aspect=fixed;fillColor=#dae8fc;strokeColor=#6c8ebf;" parent="XQJsoJnTUxO_ML1jgbQg-1" vertex="1">
          <mxGeometry x="1070" y="-600" width="80" height="80" as="geometry" />
        </mxCell>
        <mxCell id="DRi3PHCycDCZfU3tug0y-25" value="PR" style="edgeStyle=orthogonalEdgeStyle;rounded=0;orthogonalLoop=1;jettySize=auto;html=1;entryX=0;entryY=0.5;entryDx=0;entryDy=0;fillColor=#f8cecc;strokeColor=#b85450;curved=1;" parent="XQJsoJnTUxO_ML1jgbQg-1" source="c2KTPCId2U5cqxJreW77-11" target="DRi3PHCycDCZfU3tug0y-23" edge="1">
          <mxGeometry x="-0.7802" y="-29" relative="1" as="geometry">
            <mxPoint as="offset" />
          </mxGeometry>
        </mxCell>
        <mxCell id="DRi3PHCycDCZfU3tug0y-50" value="" style="edgeStyle=orthogonalEdgeStyle;rounded=0;orthogonalLoop=1;jettySize=auto;html=1;fillColor=#f8cecc;strokeColor=#b85450;" parent="XQJsoJnTUxO_ML1jgbQg-1" source="c2KTPCId2U5cqxJreW77-11" target="DRi3PHCycDCZfU3tug0y-49" edge="1">
          <mxGeometry relative="1" as="geometry" />
        </mxCell>
        <mxCell id="c2KTPCId2U5cqxJreW77-11" value="" style="ellipse;whiteSpace=wrap;html=1;aspect=fixed;fillColor=#f8cecc;strokeColor=#b85450;" parent="XQJsoJnTUxO_ML1jgbQg-1" vertex="1">
          <mxGeometry x="2229" y="-990" width="80" height="80" as="geometry" />
        </mxCell>
        <mxCell id="c2KTPCId2U5cqxJreW77-12" style="edgeStyle=orthogonalEdgeStyle;rounded=0;orthogonalLoop=1;jettySize=auto;html=1;fillColor=#f8cecc;strokeColor=#b85450;" parent="XQJsoJnTUxO_ML1jgbQg-1" source="c2KTPCId2U5cqxJreW77-13" target="c2KTPCId2U5cqxJreW77-11" edge="1">
          <mxGeometry relative="1" as="geometry" />
        </mxCell>
        <mxCell id="c2KTPCId2U5cqxJreW77-13" value="" style="ellipse;whiteSpace=wrap;html=1;aspect=fixed;fillColor=#f8cecc;strokeColor=#b85450;" parent="XQJsoJnTUxO_ML1jgbQg-1" vertex="1">
          <mxGeometry x="2069" y="-990" width="80" height="80" as="geometry" />
        </mxCell>
        <mxCell id="DRi3PHCycDCZfU3tug0y-22" value="Branch" style="edgeStyle=orthogonalEdgeStyle;rounded=0;orthogonalLoop=1;jettySize=auto;html=1;entryX=0;entryY=0.5;entryDx=0;entryDy=0;fillColor=#f8cecc;strokeColor=#b85450;curved=1;" parent="XQJsoJnTUxO_ML1jgbQg-1" source="DRi3PHCycDCZfU3tug0y-20" target="c2KTPCId2U5cqxJreW77-13" edge="1">
          <mxGeometry x="0.7936" y="-26" relative="1" as="geometry">
            <mxPoint as="offset" />
          </mxGeometry>
        </mxCell>
        <mxCell id="DRi3PHCycDCZfU3tug0y-24" value="" style="edgeStyle=orthogonalEdgeStyle;rounded=0;orthogonalLoop=1;jettySize=auto;html=1;fillColor=#d5e8d4;strokeColor=#82b366;" parent="XQJsoJnTUxO_ML1jgbQg-1" source="DRi3PHCycDCZfU3tug0y-20" target="DRi3PHCycDCZfU3tug0y-23" edge="1">
          <mxGeometry relative="1" as="geometry" />
        </mxCell>
        <mxCell id="DRi3PHCycDCZfU3tug0y-20" value="" style="ellipse;whiteSpace=wrap;html=1;aspect=fixed;fillColor=#d5e8d4;strokeColor=#82b366;" parent="XQJsoJnTUxO_ML1jgbQg-1" vertex="1">
          <mxGeometry x="1859" y="-200" width="80" height="80" as="geometry" />
        </mxCell>
        <mxCell id="DRi3PHCycDCZfU3tug0y-58" value="" style="edgeStyle=orthogonalEdgeStyle;rounded=0;orthogonalLoop=1;jettySize=auto;html=1;" parent="XQJsoJnTUxO_ML1jgbQg-1" source="DRi3PHCycDCZfU3tug0y-23" target="DRi3PHCycDCZfU3tug0y-57" edge="1">
          <mxGeometry relative="1" as="geometry" />
        </mxCell>
        <mxCell id="DRi3PHCycDCZfU3tug0y-23" value="" style="ellipse;whiteSpace=wrap;html=1;aspect=fixed;fillColor=#d5e8d4;strokeColor=#82b366;" parent="XQJsoJnTUxO_ML1jgbQg-1" vertex="1">
          <mxGeometry x="2429" y="-200" width="80" height="80" as="geometry" />
        </mxCell>
        <mxCell id="DRi3PHCycDCZfU3tug0y-26" value="Deploy" style="shape=callout;whiteSpace=wrap;html=1;perimeter=calloutPerimeter;" parent="XQJsoJnTUxO_ML1jgbQg-1" vertex="1">
          <mxGeometry x="2419" y="-290" width="120" height="80" as="geometry" />
        </mxCell>
        <mxCell id="DRi3PHCycDCZfU3tug0y-59" value="PR" style="edgeStyle=orthogonalEdgeStyle;rounded=0;orthogonalLoop=1;jettySize=auto;html=1;entryX=0;entryY=0.5;entryDx=0;entryDy=0;fillColor=#d5e8d4;strokeColor=#82b366;curved=1;dashed=1;dashPattern=12 12;" parent="XQJsoJnTUxO_ML1jgbQg-1" source="DRi3PHCycDCZfU3tug0y-27" target="DRi3PHCycDCZfU3tug0y-57" edge="1">
          <mxGeometry x="0.4282" y="10" relative="1" as="geometry">
            <mxPoint as="offset" />
          </mxGeometry>
        </mxCell>
        <mxCell id="DRi3PHCycDCZfU3tug0y-27" value="" style="ellipse;whiteSpace=wrap;html=1;aspect=fixed;fillColor=#ffe6cc;strokeColor=#d79b00;" parent="XQJsoJnTUxO_ML1jgbQg-1" vertex="1">
          <mxGeometry x="2960" y="-400" width="80" height="80" as="geometry" />
        </mxCell>
        <mxCell id="DRi3PHCycDCZfU3tug0y-32" value="" style="edgeStyle=orthogonalEdgeStyle;rounded=0;orthogonalLoop=1;jettySize=auto;html=1;fillColor=#ffe6cc;strokeColor=#d79b00;entryX=0;entryY=0.5;entryDx=0;entryDy=0;" parent="XQJsoJnTUxO_ML1jgbQg-1" source="XQJsoJnTUxO_ML1jgbQg-15" target="XQJsoJnTUxO_ML1jgbQg-16" edge="1">
          <mxGeometry relative="1" as="geometry">
            <mxPoint x="860" y="-360" as="sourcePoint" />
            <mxPoint x="1380" y="-360" as="targetPoint" />
          </mxGeometry>
        </mxCell>
        <mxCell id="DRi3PHCycDCZfU3tug0y-48" style="edgeStyle=orthogonalEdgeStyle;rounded=0;orthogonalLoop=1;jettySize=auto;html=1;entryX=0;entryY=0.5;entryDx=0;entryDy=0;fillColor=#d5e8d4;strokeColor=#82b366;" parent="XQJsoJnTUxO_ML1jgbQg-1" source="DRi3PHCycDCZfU3tug0y-47" target="XQJsoJnTUxO_ML1jgbQg-19" edge="1">
          <mxGeometry relative="1" as="geometry" />
        </mxCell>
        <mxCell id="DRi3PHCycDCZfU3tug0y-54" value="PR" style="edgeStyle=orthogonalEdgeStyle;rounded=0;orthogonalLoop=1;jettySize=auto;html=1;entryX=0;entryY=0.5;entryDx=0;entryDy=0;fillColor=#f8cecc;strokeColor=#b85450;curved=1;" parent="XQJsoJnTUxO_ML1jgbQg-1" source="DRi3PHCycDCZfU3tug0y-49" target="DRi3PHCycDCZfU3tug0y-52" edge="1">
          <mxGeometry relative="1" as="geometry" />
        </mxCell>
        <mxCell id="DRi3PHCycDCZfU3tug0y-49" value="" style="ellipse;whiteSpace=wrap;html=1;aspect=fixed;fillColor=#f8cecc;strokeColor=#b85450;" parent="XQJsoJnTUxO_ML1jgbQg-1" vertex="1">
          <mxGeometry x="2599" y="-990" width="80" height="80" as="geometry" />
        </mxCell>
        <mxCell id="DRi3PHCycDCZfU3tug0y-56" value="PR" style="edgeStyle=orthogonalEdgeStyle;rounded=0;orthogonalLoop=1;jettySize=auto;html=1;entryX=0;entryY=0.5;entryDx=0;entryDy=0;fillColor=#ffe6cc;strokeColor=#d79b00;curved=1;" parent="XQJsoJnTUxO_ML1jgbQg-1" source="DRi3PHCycDCZfU3tug0y-52" target="DRi3PHCycDCZfU3tug0y-27" edge="1">
          <mxGeometry x="0.4138" relative="1" as="geometry">
            <mxPoint as="offset" />
          </mxGeometry>
        </mxCell>
        <mxCell id="DRi3PHCycDCZfU3tug0y-52" value="" style="ellipse;whiteSpace=wrap;html=1;aspect=fixed;fillColor=#dae8fc;strokeColor=#6c8ebf;" parent="XQJsoJnTUxO_ML1jgbQg-1" vertex="1">
          <mxGeometry x="2790" y="-600" width="80" height="80" as="geometry" />
        </mxCell>
        <mxCell id="DRi3PHCycDCZfU3tug0y-57" value="" style="ellipse;whiteSpace=wrap;html=1;aspect=fixed;fillColor=#d5e8d4;strokeColor=#82b366;" parent="XQJsoJnTUxO_ML1jgbQg-1" vertex="1">
          <mxGeometry x="3120" y="-200" width="80" height="80" as="geometry" />
        </mxCell>
      </root>
    </mxGraphModel>
  </diagram>
  <diagram name="GitFlow" id="QRPX6HEjOwinncLHDO8P">
    <mxGraphModel dx="2074" dy="2296" grid="1" gridSize="10" guides="1" tooltips="1" connect="1" arrows="1" fold="1" page="1" pageScale="1" pageWidth="850" pageHeight="1100" math="0" shadow="0">
      <root>
        <mxCell id="qqIzlmFhx5EcpuNnDEjo-0" />
        <mxCell id="qqIzlmFhx5EcpuNnDEjo-1" parent="qqIzlmFhx5EcpuNnDEjo-0" />
        <mxCell id="qqIzlmFhx5EcpuNnDEjo-5" value="Dev" style="swimlane;horizontal=0;whiteSpace=wrap;html=1;" parent="qqIzlmFhx5EcpuNnDEjo-1" vertex="1">
          <mxGeometry x="60" y="-840" width="2740" height="200" as="geometry" />
        </mxCell>
        <mxCell id="8YxtDW7zoHm1bp2MBkUx-20" value="" style="edgeStyle=orthogonalEdgeStyle;rounded=0;orthogonalLoop=1;jettySize=auto;html=1;fillColor=#fff2cc;strokeColor=#d6b656;" parent="qqIzlmFhx5EcpuNnDEjo-5" source="8YxtDW7zoHm1bp2MBkUx-11" target="8YxtDW7zoHm1bp2MBkUx-19" edge="1">
          <mxGeometry relative="1" as="geometry" />
        </mxCell>
        <mxCell id="8YxtDW7zoHm1bp2MBkUx-11" value="" style="ellipse;whiteSpace=wrap;html=1;aspect=fixed;fillColor=#fff2cc;strokeColor=#d6b656;" parent="qqIzlmFhx5EcpuNnDEjo-5" vertex="1">
          <mxGeometry x="230" y="60" width="80" height="80" as="geometry" />
        </mxCell>
        <mxCell id="8YxtDW7zoHm1bp2MBkUx-23" value="" style="edgeStyle=orthogonalEdgeStyle;rounded=0;orthogonalLoop=1;jettySize=auto;html=1;fillColor=#fff2cc;strokeColor=#d6b656;" parent="qqIzlmFhx5EcpuNnDEjo-5" source="8YxtDW7zoHm1bp2MBkUx-19" target="8YxtDW7zoHm1bp2MBkUx-22" edge="1">
          <mxGeometry relative="1" as="geometry" />
        </mxCell>
        <mxCell id="8YxtDW7zoHm1bp2MBkUx-19" value="" style="ellipse;whiteSpace=wrap;html=1;aspect=fixed;fillColor=#fff2cc;strokeColor=#d6b656;" parent="qqIzlmFhx5EcpuNnDEjo-5" vertex="1">
          <mxGeometry x="540" y="60" width="80" height="80" as="geometry" />
        </mxCell>
        <mxCell id="xf-w_uEdZndqndXQo3-U-5" value="" style="edgeStyle=orthogonalEdgeStyle;rounded=0;orthogonalLoop=1;jettySize=auto;html=1;fillColor=#fff2cc;strokeColor=#d6b656;" parent="qqIzlmFhx5EcpuNnDEjo-5" source="xf-w_uEdZndqndXQo3-U-38" target="xf-w_uEdZndqndXQo3-U-4" edge="1">
          <mxGeometry relative="1" as="geometry" />
        </mxCell>
        <mxCell id="8YxtDW7zoHm1bp2MBkUx-22" value="" style="ellipse;whiteSpace=wrap;html=1;aspect=fixed;fillColor=#fff2cc;strokeColor=#d6b656;" parent="qqIzlmFhx5EcpuNnDEjo-5" vertex="1">
          <mxGeometry x="860" y="60" width="80" height="80" as="geometry" />
        </mxCell>
        <mxCell id="xf-w_uEdZndqndXQo3-U-15" value="" style="edgeStyle=orthogonalEdgeStyle;rounded=0;orthogonalLoop=1;jettySize=auto;html=1;fillColor=#fff2cc;strokeColor=#d6b656;" parent="qqIzlmFhx5EcpuNnDEjo-5" source="xf-w_uEdZndqndXQo3-U-4" target="xf-w_uEdZndqndXQo3-U-14" edge="1">
          <mxGeometry relative="1" as="geometry" />
        </mxCell>
        <mxCell id="xf-w_uEdZndqndXQo3-U-4" value="" style="ellipse;whiteSpace=wrap;html=1;aspect=fixed;fillColor=#fff2cc;strokeColor=#d6b656;" parent="qqIzlmFhx5EcpuNnDEjo-5" vertex="1">
          <mxGeometry x="1370" y="60" width="80" height="80" as="geometry" />
        </mxCell>
        <mxCell id="xf-w_uEdZndqndXQo3-U-18" value="" style="edgeStyle=orthogonalEdgeStyle;rounded=0;orthogonalLoop=1;jettySize=auto;html=1;fillColor=#fff2cc;strokeColor=#d6b656;" parent="qqIzlmFhx5EcpuNnDEjo-5" source="xf-w_uEdZndqndXQo3-U-14" target="xf-w_uEdZndqndXQo3-U-17" edge="1">
          <mxGeometry relative="1" as="geometry" />
        </mxCell>
        <mxCell id="xf-w_uEdZndqndXQo3-U-14" value="" style="ellipse;whiteSpace=wrap;html=1;aspect=fixed;fillColor=#fff2cc;strokeColor=#d6b656;" parent="qqIzlmFhx5EcpuNnDEjo-5" vertex="1">
          <mxGeometry x="1710" y="60" width="80" height="80" as="geometry" />
        </mxCell>
        <mxCell id="xf-w_uEdZndqndXQo3-U-17" value="" style="ellipse;whiteSpace=wrap;html=1;aspect=fixed;fillColor=#fff2cc;strokeColor=#d6b656;" parent="qqIzlmFhx5EcpuNnDEjo-5" vertex="1">
          <mxGeometry x="2005" y="60" width="80" height="80" as="geometry" />
        </mxCell>
        <mxCell id="xf-w_uEdZndqndXQo3-U-38" value="" style="ellipse;whiteSpace=wrap;html=1;aspect=fixed;fillColor=#fff2cc;strokeColor=#d6b656;" parent="qqIzlmFhx5EcpuNnDEjo-5" vertex="1">
          <mxGeometry x="1040" y="60" width="80" height="80" as="geometry" />
        </mxCell>
        <mxCell id="xf-w_uEdZndqndXQo3-U-39" value="" style="edgeStyle=orthogonalEdgeStyle;rounded=0;orthogonalLoop=1;jettySize=auto;html=1;fillColor=#fff2cc;strokeColor=#d6b656;" parent="qqIzlmFhx5EcpuNnDEjo-5" source="8YxtDW7zoHm1bp2MBkUx-22" target="xf-w_uEdZndqndXQo3-U-38" edge="1">
          <mxGeometry relative="1" as="geometry">
            <mxPoint x="980" y="140" as="sourcePoint" />
            <mxPoint x="1410" y="140" as="targetPoint" />
          </mxGeometry>
        </mxCell>
        <mxCell id="qqIzlmFhx5EcpuNnDEjo-16" value="Feature" style="swimlane;horizontal=0;whiteSpace=wrap;html=1;" parent="qqIzlmFhx5EcpuNnDEjo-1" vertex="1">
          <mxGeometry x="60" y="-640" width="2740" height="200" as="geometry" />
        </mxCell>
        <mxCell id="8YxtDW7zoHm1bp2MBkUx-16" value="" style="edgeStyle=orthogonalEdgeStyle;rounded=0;orthogonalLoop=1;jettySize=auto;html=1;fillColor=#ffe6cc;strokeColor=#d79b00;" parent="qqIzlmFhx5EcpuNnDEjo-16" source="8YxtDW7zoHm1bp2MBkUx-13" target="8YxtDW7zoHm1bp2MBkUx-15" edge="1">
          <mxGeometry relative="1" as="geometry" />
        </mxCell>
        <mxCell id="8YxtDW7zoHm1bp2MBkUx-13" value="" style="ellipse;whiteSpace=wrap;html=1;aspect=fixed;fillColor=#ffe6cc;strokeColor=#d79b00;" parent="qqIzlmFhx5EcpuNnDEjo-16" vertex="1">
          <mxGeometry x="380" y="60" width="80" height="80" as="geometry" />
        </mxCell>
        <mxCell id="8YxtDW7zoHm1bp2MBkUx-18" value="" style="edgeStyle=orthogonalEdgeStyle;rounded=0;orthogonalLoop=1;jettySize=auto;html=1;fillColor=#ffe6cc;strokeColor=#d79b00;" parent="qqIzlmFhx5EcpuNnDEjo-16" source="8YxtDW7zoHm1bp2MBkUx-15" target="8YxtDW7zoHm1bp2MBkUx-17" edge="1">
          <mxGeometry relative="1" as="geometry" />
        </mxCell>
        <mxCell id="8YxtDW7zoHm1bp2MBkUx-15" value="" style="ellipse;whiteSpace=wrap;html=1;aspect=fixed;fillColor=#ffe6cc;strokeColor=#d79b00;" parent="qqIzlmFhx5EcpuNnDEjo-16" vertex="1">
          <mxGeometry x="540" y="60" width="80" height="80" as="geometry" />
        </mxCell>
        <mxCell id="xf-w_uEdZndqndXQo3-U-8" value="" style="edgeStyle=orthogonalEdgeStyle;rounded=0;orthogonalLoop=1;jettySize=auto;html=1;fillColor=#ffe6cc;strokeColor=#d79b00;" parent="qqIzlmFhx5EcpuNnDEjo-16" source="8YxtDW7zoHm1bp2MBkUx-17" target="xf-w_uEdZndqndXQo3-U-7" edge="1">
          <mxGeometry relative="1" as="geometry" />
        </mxCell>
        <mxCell id="8YxtDW7zoHm1bp2MBkUx-17" value="" style="ellipse;whiteSpace=wrap;html=1;aspect=fixed;fillColor=#ffe6cc;strokeColor=#d79b00;" parent="qqIzlmFhx5EcpuNnDEjo-16" vertex="1">
          <mxGeometry x="700" y="60" width="80" height="80" as="geometry" />
        </mxCell>
        <mxCell id="xf-w_uEdZndqndXQo3-U-11" value="" style="edgeStyle=orthogonalEdgeStyle;rounded=0;orthogonalLoop=1;jettySize=auto;html=1;fillColor=#ffe6cc;strokeColor=#d79b00;" parent="qqIzlmFhx5EcpuNnDEjo-16" source="xf-w_uEdZndqndXQo3-U-7" target="xf-w_uEdZndqndXQo3-U-10" edge="1">
          <mxGeometry relative="1" as="geometry" />
        </mxCell>
        <mxCell id="xf-w_uEdZndqndXQo3-U-7" value="" style="ellipse;whiteSpace=wrap;html=1;aspect=fixed;fillColor=#ffe6cc;strokeColor=#d79b00;" parent="qqIzlmFhx5EcpuNnDEjo-16" vertex="1">
          <mxGeometry x="1550" y="60" width="80" height="80" as="geometry" />
        </mxCell>
        <mxCell id="xf-w_uEdZndqndXQo3-U-13" value="" style="edgeStyle=orthogonalEdgeStyle;rounded=0;orthogonalLoop=1;jettySize=auto;html=1;fillColor=#ffe6cc;strokeColor=#d79b00;" parent="qqIzlmFhx5EcpuNnDEjo-16" source="xf-w_uEdZndqndXQo3-U-10" target="xf-w_uEdZndqndXQo3-U-12" edge="1">
          <mxGeometry relative="1" as="geometry" />
        </mxCell>
        <mxCell id="xf-w_uEdZndqndXQo3-U-10" value="" style="ellipse;whiteSpace=wrap;html=1;aspect=fixed;fillColor=#ffe6cc;strokeColor=#d79b00;" parent="qqIzlmFhx5EcpuNnDEjo-16" vertex="1">
          <mxGeometry x="1710" y="60" width="80" height="80" as="geometry" />
        </mxCell>
        <mxCell id="xf-w_uEdZndqndXQo3-U-12" value="" style="ellipse;whiteSpace=wrap;html=1;aspect=fixed;fillColor=#ffe6cc;strokeColor=#d79b00;" parent="qqIzlmFhx5EcpuNnDEjo-16" vertex="1">
          <mxGeometry x="1870" y="60" width="80" height="80" as="geometry" />
        </mxCell>
        <mxCell id="ygezzxz-_MBo-0eKYlqa-0" value="Dev" style="shape=umlActor;verticalLabelPosition=bottom;verticalAlign=top;html=1;outlineConnect=0;" parent="qqIzlmFhx5EcpuNnDEjo-16" vertex="1">
          <mxGeometry x="50" y="70" width="30" height="60" as="geometry" />
        </mxCell>
        <mxCell id="qqIzlmFhx5EcpuNnDEjo-22" value="Hotfix" style="swimlane;horizontal=0;whiteSpace=wrap;html=1;" parent="qqIzlmFhx5EcpuNnDEjo-1" vertex="1">
          <mxGeometry x="60" y="-440" width="2740" height="200" as="geometry" />
        </mxCell>
        <mxCell id="xf-w_uEdZndqndXQo3-U-33" value="v0.1" style="ellipse;whiteSpace=wrap;html=1;aspect=fixed;fillColor=#f8cecc;strokeColor=#b85450;" parent="qqIzlmFhx5EcpuNnDEjo-22" vertex="1">
          <mxGeometry x="740" y="60" width="80" height="80" as="geometry" />
        </mxCell>
        <mxCell id="ygezzxz-_MBo-0eKYlqa-2" value="Dev" style="shape=umlActor;verticalLabelPosition=bottom;verticalAlign=top;html=1;outlineConnect=0;" parent="qqIzlmFhx5EcpuNnDEjo-22" vertex="1">
          <mxGeometry x="50" y="70" width="30" height="60" as="geometry" />
        </mxCell>
        <mxCell id="qqIzlmFhx5EcpuNnDEjo-29" value="Release" style="swimlane;horizontal=0;whiteSpace=wrap;html=1;" parent="qqIzlmFhx5EcpuNnDEjo-1" vertex="1">
          <mxGeometry x="60" y="-240" width="2740" height="200" as="geometry" />
        </mxCell>
        <mxCell id="xf-w_uEdZndqndXQo3-U-3" value="" style="edgeStyle=orthogonalEdgeStyle;rounded=0;orthogonalLoop=1;jettySize=auto;html=1;fillColor=#d5e8d4;strokeColor=#82b366;" parent="qqIzlmFhx5EcpuNnDEjo-29" source="xf-w_uEdZndqndXQo3-U-0" target="xf-w_uEdZndqndXQo3-U-2" edge="1">
          <mxGeometry relative="1" as="geometry" />
        </mxCell>
        <mxCell id="xf-w_uEdZndqndXQo3-U-0" value="" style="ellipse;whiteSpace=wrap;html=1;aspect=fixed;fillColor=#d5e8d4;strokeColor=#82b366;" parent="qqIzlmFhx5EcpuNnDEjo-29" vertex="1">
          <mxGeometry x="1040" y="60" width="80" height="80" as="geometry" />
        </mxCell>
        <mxCell id="xf-w_uEdZndqndXQo3-U-2" value="" style="ellipse;whiteSpace=wrap;html=1;aspect=fixed;fillColor=#d5e8d4;strokeColor=#82b366;" parent="qqIzlmFhx5EcpuNnDEjo-29" vertex="1">
          <mxGeometry x="1200" y="60" width="80" height="80" as="geometry" />
        </mxCell>
        <mxCell id="8YxtDW7zoHm1bp2MBkUx-0" value="Master" style="swimlane;horizontal=0;whiteSpace=wrap;html=1;fillColor=#dae8fc;strokeColor=#6c8ebf;" parent="qqIzlmFhx5EcpuNnDEjo-1" vertex="1">
          <mxGeometry x="60" y="-1050" width="2740" height="210" as="geometry" />
        </mxCell>
        <mxCell id="8YxtDW7zoHm1bp2MBkUx-6" value="v0.1" style="ellipse;whiteSpace=wrap;html=1;aspect=fixed;fillColor=#dae8fc;strokeColor=#6c8ebf;" parent="8YxtDW7zoHm1bp2MBkUx-0" vertex="1">
          <mxGeometry x="80" y="60" width="80" height="80" as="geometry" />
        </mxCell>
        <mxCell id="xf-w_uEdZndqndXQo3-U-46" value="" style="edgeStyle=orthogonalEdgeStyle;rounded=0;orthogonalLoop=1;jettySize=auto;html=1;fillColor=#dae8fc;strokeColor=#6c8ebf;" parent="8YxtDW7zoHm1bp2MBkUx-0" source="xf-w_uEdZndqndXQo3-U-27" edge="1">
          <mxGeometry relative="1" as="geometry">
            <mxPoint x="2590" y="100" as="targetPoint" />
          </mxGeometry>
        </mxCell>
        <mxCell id="xf-w_uEdZndqndXQo3-U-27" value="v1.0" style="ellipse;whiteSpace=wrap;html=1;aspect=fixed;fillColor=#dae8fc;strokeColor=#6c8ebf;" parent="8YxtDW7zoHm1bp2MBkUx-0" vertex="1">
          <mxGeometry x="2430" y="60" width="80" height="80" as="geometry" />
        </mxCell>
        <mxCell id="xf-w_uEdZndqndXQo3-U-28" value="" style="edgeStyle=orthogonalEdgeStyle;rounded=0;orthogonalLoop=1;jettySize=auto;html=1;fillColor=#dae8fc;strokeColor=#6c8ebf;" parent="8YxtDW7zoHm1bp2MBkUx-0" source="xf-w_uEdZndqndXQo3-U-35" target="xf-w_uEdZndqndXQo3-U-27" edge="1">
          <mxGeometry relative="1" as="geometry" />
        </mxCell>
        <mxCell id="xf-w_uEdZndqndXQo3-U-31" value="v0.1" style="ellipse;whiteSpace=wrap;html=1;aspect=fixed;fillColor=#dae8fc;strokeColor=#6c8ebf;" parent="8YxtDW7zoHm1bp2MBkUx-0" vertex="1">
          <mxGeometry x="530" y="60" width="80" height="80" as="geometry" />
        </mxCell>
        <mxCell id="xf-w_uEdZndqndXQo3-U-32" value="" style="edgeStyle=orthogonalEdgeStyle;rounded=0;orthogonalLoop=1;jettySize=auto;html=1;fillColor=#dae8fc;strokeColor=#6c8ebf;" parent="8YxtDW7zoHm1bp2MBkUx-0" source="8YxtDW7zoHm1bp2MBkUx-6" target="xf-w_uEdZndqndXQo3-U-31" edge="1">
          <mxGeometry relative="1" as="geometry">
            <mxPoint x="200" y="-70" as="sourcePoint" />
            <mxPoint x="2470" y="-70" as="targetPoint" />
          </mxGeometry>
        </mxCell>
        <mxCell id="xf-w_uEdZndqndXQo3-U-35" value="v0.2" style="ellipse;whiteSpace=wrap;html=1;aspect=fixed;fillColor=#dae8fc;strokeColor=#6c8ebf;" parent="8YxtDW7zoHm1bp2MBkUx-0" vertex="1">
          <mxGeometry x="1170" y="60" width="80" height="80" as="geometry" />
        </mxCell>
        <mxCell id="xf-w_uEdZndqndXQo3-U-36" value="" style="edgeStyle=orthogonalEdgeStyle;rounded=0;orthogonalLoop=1;jettySize=auto;html=1;fillColor=#dae8fc;strokeColor=#6c8ebf;" parent="8YxtDW7zoHm1bp2MBkUx-0" source="xf-w_uEdZndqndXQo3-U-31" target="xf-w_uEdZndqndXQo3-U-35" edge="1">
          <mxGeometry relative="1" as="geometry">
            <mxPoint x="650" y="-70" as="sourcePoint" />
            <mxPoint x="2470" y="-70" as="targetPoint" />
          </mxGeometry>
        </mxCell>
        <mxCell id="8YxtDW7zoHm1bp2MBkUx-12" value="Branch" style="edgeStyle=orthogonalEdgeStyle;rounded=0;orthogonalLoop=1;jettySize=auto;html=1;entryX=0;entryY=0.5;entryDx=0;entryDy=0;curved=1;fillColor=#fff2cc;strokeColor=#d6b656;" parent="qqIzlmFhx5EcpuNnDEjo-1" source="8YxtDW7zoHm1bp2MBkUx-6" target="8YxtDW7zoHm1bp2MBkUx-11" edge="1">
          <mxGeometry x="0.2222" relative="1" as="geometry">
            <mxPoint as="offset" />
          </mxGeometry>
        </mxCell>
        <mxCell id="8YxtDW7zoHm1bp2MBkUx-14" value="Branch" style="edgeStyle=orthogonalEdgeStyle;rounded=0;orthogonalLoop=1;jettySize=auto;html=1;entryX=0;entryY=0.5;entryDx=0;entryDy=0;curved=1;fillColor=#ffe6cc;strokeColor=#d79b00;" parent="qqIzlmFhx5EcpuNnDEjo-1" source="8YxtDW7zoHm1bp2MBkUx-11" target="8YxtDW7zoHm1bp2MBkUx-13" edge="1">
          <mxGeometry x="0.2963" relative="1" as="geometry">
            <mxPoint as="offset" />
          </mxGeometry>
        </mxCell>
        <mxCell id="8YxtDW7zoHm1bp2MBkUx-21" value="Merge" style="edgeStyle=orthogonalEdgeStyle;rounded=0;orthogonalLoop=1;jettySize=auto;html=1;entryX=0;entryY=0.5;entryDx=0;entryDy=0;curved=1;fillColor=#ffe6cc;strokeColor=#d79b00;" parent="qqIzlmFhx5EcpuNnDEjo-1" source="8YxtDW7zoHm1bp2MBkUx-19" target="8YxtDW7zoHm1bp2MBkUx-17" edge="1">
          <mxGeometry x="0.2853" relative="1" as="geometry">
            <mxPoint as="offset" />
          </mxGeometry>
        </mxCell>
        <mxCell id="8YxtDW7zoHm1bp2MBkUx-24" value="PR&lt;br&gt;" style="edgeStyle=orthogonalEdgeStyle;rounded=0;orthogonalLoop=1;jettySize=auto;html=1;entryX=0;entryY=0.5;entryDx=0;entryDy=0;curved=1;fillColor=#ffe6cc;strokeColor=#d79b00;" parent="qqIzlmFhx5EcpuNnDEjo-1" source="8YxtDW7zoHm1bp2MBkUx-17" target="8YxtDW7zoHm1bp2MBkUx-22" edge="1">
          <mxGeometry x="-0.2853" relative="1" as="geometry">
            <mxPoint as="offset" />
          </mxGeometry>
        </mxCell>
        <mxCell id="xf-w_uEdZndqndXQo3-U-1" value="Branch" style="edgeStyle=orthogonalEdgeStyle;rounded=0;orthogonalLoop=1;jettySize=auto;html=1;curved=1;entryX=0;entryY=0.5;entryDx=0;entryDy=0;fillColor=#d5e8d4;strokeColor=#82b366;" parent="qqIzlmFhx5EcpuNnDEjo-1" source="8YxtDW7zoHm1bp2MBkUx-22" target="xf-w_uEdZndqndXQo3-U-0" edge="1">
          <mxGeometry x="0.7141" y="20" relative="1" as="geometry">
            <mxPoint as="offset" />
          </mxGeometry>
        </mxCell>
        <mxCell id="xf-w_uEdZndqndXQo3-U-6" value="PR" style="edgeStyle=orthogonalEdgeStyle;rounded=0;orthogonalLoop=1;jettySize=auto;html=1;entryX=0;entryY=0.5;entryDx=0;entryDy=0;curved=1;fillColor=#d5e8d4;strokeColor=#82b366;" parent="qqIzlmFhx5EcpuNnDEjo-1" source="xf-w_uEdZndqndXQo3-U-2" target="xf-w_uEdZndqndXQo3-U-4" edge="1">
          <mxGeometry x="-0.7243" y="15" relative="1" as="geometry">
            <mxPoint as="offset" />
          </mxGeometry>
        </mxCell>
        <mxCell id="xf-w_uEdZndqndXQo3-U-9" value="Branch" style="edgeStyle=orthogonalEdgeStyle;rounded=0;orthogonalLoop=1;jettySize=auto;html=1;entryX=0;entryY=0.5;entryDx=0;entryDy=0;curved=1;fillColor=#ffe6cc;strokeColor=#d79b00;" parent="qqIzlmFhx5EcpuNnDEjo-1" source="xf-w_uEdZndqndXQo3-U-4" target="xf-w_uEdZndqndXQo3-U-7" edge="1">
          <mxGeometry x="0.3329" relative="1" as="geometry">
            <mxPoint as="offset" />
          </mxGeometry>
        </mxCell>
        <mxCell id="xf-w_uEdZndqndXQo3-U-16" value="Merge" style="edgeStyle=orthogonalEdgeStyle;rounded=0;orthogonalLoop=1;jettySize=auto;html=1;entryX=0;entryY=0.5;entryDx=0;entryDy=0;curved=1;fillColor=#ffe6cc;strokeColor=#d79b00;" parent="qqIzlmFhx5EcpuNnDEjo-1" source="xf-w_uEdZndqndXQo3-U-14" target="xf-w_uEdZndqndXQo3-U-12" edge="1">
          <mxGeometry x="0.3567" relative="1" as="geometry">
            <mxPoint y="1" as="offset" />
          </mxGeometry>
        </mxCell>
        <mxCell id="xf-w_uEdZndqndXQo3-U-19" value="PR" style="edgeStyle=orthogonalEdgeStyle;rounded=0;orthogonalLoop=1;jettySize=auto;html=1;entryX=0;entryY=0.5;entryDx=0;entryDy=0;curved=1;fillColor=#ffe6cc;strokeColor=#d79b00;" parent="qqIzlmFhx5EcpuNnDEjo-1" source="xf-w_uEdZndqndXQo3-U-12" target="xf-w_uEdZndqndXQo3-U-17" edge="1">
          <mxGeometry x="-0.3916" y="8" relative="1" as="geometry">
            <mxPoint as="offset" />
          </mxGeometry>
        </mxCell>
        <mxCell id="xf-w_uEdZndqndXQo3-U-29" value="PR" style="edgeStyle=orthogonalEdgeStyle;rounded=0;orthogonalLoop=1;jettySize=auto;html=1;entryX=0;entryY=0.5;entryDx=0;entryDy=0;curved=1;fillColor=#d5e8d4;strokeColor=#82b366;" parent="qqIzlmFhx5EcpuNnDEjo-1" source="xf-w_uEdZndqndXQo3-U-20" target="xf-w_uEdZndqndXQo3-U-27" edge="1">
          <mxGeometry x="-0.7935" y="25" relative="1" as="geometry">
            <mxPoint y="-1" as="offset" />
          </mxGeometry>
        </mxCell>
        <mxCell id="xf-w_uEdZndqndXQo3-U-20" value="" style="ellipse;whiteSpace=wrap;html=1;aspect=fixed;fillColor=#d5e8d4;strokeColor=#82b366;" parent="qqIzlmFhx5EcpuNnDEjo-1" vertex="1">
          <mxGeometry x="2300" y="-180" width="80" height="80" as="geometry" />
        </mxCell>
        <mxCell id="xf-w_uEdZndqndXQo3-U-21" value="" style="edgeStyle=orthogonalEdgeStyle;rounded=0;orthogonalLoop=1;jettySize=auto;html=1;fillColor=#d5e8d4;strokeColor=#82b366;" parent="qqIzlmFhx5EcpuNnDEjo-1" source="xf-w_uEdZndqndXQo3-U-2" target="xf-w_uEdZndqndXQo3-U-20" edge="1">
          <mxGeometry relative="1" as="geometry" />
        </mxCell>
        <mxCell id="xf-w_uEdZndqndXQo3-U-24" value="Branch" style="edgeStyle=orthogonalEdgeStyle;rounded=0;orthogonalLoop=1;jettySize=auto;html=1;entryX=0;entryY=0.5;entryDx=0;entryDy=0;curved=1;fillColor=#d5e8d4;strokeColor=#82b366;" parent="qqIzlmFhx5EcpuNnDEjo-1" source="xf-w_uEdZndqndXQo3-U-17" target="xf-w_uEdZndqndXQo3-U-20" edge="1">
          <mxGeometry x="0.6624" y="27" relative="1" as="geometry">
            <mxPoint as="offset" />
          </mxGeometry>
        </mxCell>
        <mxCell id="xf-w_uEdZndqndXQo3-U-25" value="" style="ellipse;whiteSpace=wrap;html=1;aspect=fixed;fillColor=#fff2cc;strokeColor=#d6b656;" parent="qqIzlmFhx5EcpuNnDEjo-1" vertex="1">
          <mxGeometry x="2630" y="-780" width="80" height="80" as="geometry" />
        </mxCell>
        <mxCell id="xf-w_uEdZndqndXQo3-U-26" value="" style="edgeStyle=orthogonalEdgeStyle;rounded=0;orthogonalLoop=1;jettySize=auto;html=1;fillColor=#fff2cc;strokeColor=#d6b656;" parent="qqIzlmFhx5EcpuNnDEjo-1" source="xf-w_uEdZndqndXQo3-U-17" target="xf-w_uEdZndqndXQo3-U-25" edge="1">
          <mxGeometry relative="1" as="geometry" />
        </mxCell>
        <mxCell id="xf-w_uEdZndqndXQo3-U-34" value="Merge" style="edgeStyle=orthogonalEdgeStyle;rounded=0;orthogonalLoop=1;jettySize=auto;html=1;entryX=0;entryY=0.5;entryDx=0;entryDy=0;curved=1;fillColor=#f8cecc;strokeColor=#b85450;" parent="qqIzlmFhx5EcpuNnDEjo-1" source="xf-w_uEdZndqndXQo3-U-31" target="xf-w_uEdZndqndXQo3-U-33" edge="1">
          <mxGeometry x="0.6892" y="25" relative="1" as="geometry">
            <mxPoint y="-1" as="offset" />
          </mxGeometry>
        </mxCell>
        <mxCell id="xf-w_uEdZndqndXQo3-U-37" value="PR" style="edgeStyle=orthogonalEdgeStyle;rounded=0;orthogonalLoop=1;jettySize=auto;html=1;entryX=0;entryY=0.5;entryDx=0;entryDy=0;curved=1;fillColor=#f8cecc;strokeColor=#b85450;" parent="qqIzlmFhx5EcpuNnDEjo-1" source="xf-w_uEdZndqndXQo3-U-33" target="xf-w_uEdZndqndXQo3-U-35" edge="1">
          <mxGeometry x="-0.4896" y="45" relative="1" as="geometry">
            <mxPoint y="-1" as="offset" />
          </mxGeometry>
        </mxCell>
        <mxCell id="xf-w_uEdZndqndXQo3-U-40" value="PR" style="edgeStyle=orthogonalEdgeStyle;rounded=0;orthogonalLoop=1;jettySize=auto;html=1;entryX=0;entryY=0.5;entryDx=0;entryDy=0;curved=1;fillColor=#f8cecc;strokeColor=#b85450;" parent="qqIzlmFhx5EcpuNnDEjo-1" source="xf-w_uEdZndqndXQo3-U-33" target="xf-w_uEdZndqndXQo3-U-38" edge="1">
          <mxGeometry x="-0.4839" y="20" relative="1" as="geometry">
            <mxPoint as="offset" />
          </mxGeometry>
        </mxCell>
      </root>
    </mxGraphModel>
  </diagram>
</mxfile>
